<mxfile host="65bd71144e">
    <diagram id="P9jZrcN8_gIOGJPuBCG3" name="Page-1">
        <mxGraphModel dx="277" dy="256" grid="0" gridSize="10" guides="1" tooltips="1" connect="1" arrows="1" fold="1" page="1" pageScale="1" pageWidth="850" pageHeight="1100" math="0" shadow="0">
            <root>
                <mxCell id="0"/>
                <mxCell id="1" parent="0"/>
                <mxCell id="5" value="" style="shape=image;verticalLabelPosition=bottom;labelBackgroundColor=#ffffff;verticalAlign=top;aspect=fixed;imageAspect=0;image=data:image/png,iVBORw0KGgoAAAANSUhEUgAAAC4AAABACAYAAABlR0UdAAAACXBIWXMAAA7DAAAOwwHHb6hkAAAAGXRFWHRTb2Z0d2FyZQB3d3cuaW5rc2NhcGUub3Jnm+48GgAABrdJREFUaIHt2G+MXGUVx/HPc+femdl/hZaumJY/qbFaTbCABKEilVKUUgK1BEkUxCgI0TfGNxoSE3xFfCVgiEAChMS+QWyAEBVBRYKGSIPBBGgsaEgFBO22291ud2fu3McXM7s72+5Ct3vbQNxf8mRmnnvnnO8995zn3PuwqEUtalGLWtSiFrWoRR0bbbPaA9YcNv+ANR6wukxXaZnGFAZkqofNZ04UNcp0VS54dly8HAOTc4HPNb8AJaVaq5od8hiAl38TZ7OYIpTrptyIv1tkS456+TlezDFfbojKNmfuVDkObo5ec0V2rjuxAJUPPlsRpoilejpO4JkPAPix94JjUZwV1xzR3AJV/jqe2nrYfGpr2et4eeC79UitUpnlWIrUKrv1lOWuPPBxF6p4eM51PPOw3IVluTt68F1qdnQlQNo1DlWKSmdMaofMLrWjdT8Nfs88szBRt8R68JL+KbC5U6Wtd/SDJdZL1Ofls4txGnyJlfMyAsGVYMDFeG/wFLmNnbkt8/b3oWnGafDUqfM2FHxJFLBpKh1mS5Xuu5HYJAoqrpi3v+iUya/T4IUTPaFvnuArve4sFZukggSJ5ck+D6V7nJ/ucb4RD0kt71xUEFzqLWcJ8wzUE/oklh4OTo9Ry+cJ3k6XYIXoUyGQRL1J4ereMavq405PgqtD0CtBxVqJFYIt836xGDOomK6J6Rsb1ESDeH2e8FdCiC4LebsHVVr0DTujCGKrTjOlhcimzsVeMW/wquUac4FXDE79fsK3ZG6XOiC1X2pY5oCKUZkRLWOdf68NUQyFdVmL2ji1MWLDD2TUhwh9NKvkiXWxnelrO97v8JpeTQNy/XJ9cifILZHr0/Jd693b4RsUppfP7lLqUXRS5TfWCm5HT2e05yef8Lo+Q0GIQtaSVceoDVPbS9JEQmUJ4SQMoEeWI8aOjcL1CnM/OUZ3+q0XfMEOLYPCbBEv1ASDHrdUy3ZBj0kHs42CENppnuVUx6jvJ9tDHKYYRUYYo5aj2YGvk4cu+GnI2UZN8EtPOdu4we6Xke6I1wX9cvdLfeTdgBUIbfBsog3ds590iLiPkydOsfLEcwwN/93u/+4S86Z6SzvRB4g1WpPwxRx+pnWapgdFL4n2T052L4c10Y2iLV0GXsMtouYUcOdYaJFOkB2kZ1870oY4afRkn1h9sxeqGy376HVOs0bcG1T+Tc871IfJxklyUxV7CHxT4RbRa11zm0U3iNOp0r0c1hWWdZ38isR6n3eb3AbRf7ojHlpUcqoHqI5SGaY4wNL6Si8e7PXWROFP+/r0Lvu4bKzGCJX9nXMnSBrt+jBzDAk2ucBtGj4r+lsXz7Lu4uyO+MldJz1v3Odc7A1wkWcF6xR2KjqRaiEn5F2/W4yMDVlRGwGn9xy0d/ifihhnXHDID0m79tgp8Rnn+h3Y6G3RBtHzXWn64Zng2ywVbRXR8ozMRlvtmZFp67yq5Vwtj0/e2haaNfIqRZ2kyli+z/7dv7Zx4GXVoSeNDf9Ls9oQ6+3cbmRd+T15wYUnJc73aa/O8LnRHsFFoqc68Fd50EnT4A03KfQp/AqXumy6CGboAiN226Lw41h0wCsc7Cc/Af0M1/fZu3enN3Zut//tvxrOhiS9UTHAwQEmejsNKRLbkb5XYbOz7JvV5xcdUHG5wiOiXqkbILhV6lT/kPqzcde5SXNWA4fqL24M0V1JkFUb7aZTG27nulHiOCEl9BJPoLGU8QEadfKMIspF33O2nx6Rvz9Ive0+hYuNWBXc7RqJzd70DbfKj8jIpJ5zQQi2V6LBarNdqPURshHCQaS0+phYyng/jZ4p6CF82dmdfD5SPaRiwt1angx+5io32y4c5c7Hc1aLHktZkzWoHaR2gLRJTNqpMT7QroVmSmSn3BXOs+uo/EXB/baWs/n7rK9K/Dwt2l00bZLmFBWaGXmtXQsRgmuda9tCXZazVdNpJHloRzmvEqrtztpKOodbnXNL2kMsB3yy84X2UldoQ0eHtPXJc0tQOeAN7YfV9rO22Bkz9L7cO5x85ghdQ9cn79OIt7vfkYGXFPlywDsvDUcEXpL+zyM+udR94CLeNBP6OBTnwjvn/T4p2C54U9ASnCd09genrY/iOYUKVkhsda2XF+J2YdvM99gs97Tcj3zdBte7RNN35MwYTd92rUt8zQYtt2j4o/tctRDXs21RvreiYND3RbfjK27yyNSxx7zoch9TOKPTMX/hm344dfxRr7jMDoVtLrfUOX7v6bIrYC7dadAdnvETZx61jbuc6S7PuLNrE2oe+h+FyGjEZ1VIsQAAAABJRU5ErkJggg==;" parent="1" vertex="1">
                    <mxGeometry x="409.5" y="338" width="46" height="64" as="geometry"/>
                </mxCell>
                <mxCell id="6" value="" style="edgeStyle=none;html=1;exitX=1;exitY=0.3333333333333333;exitDx=0;exitDy=0;exitPerimeter=0;endArrow=none;" parent="1" target="5" edge="1">
                    <mxGeometry relative="1" as="geometry">
                        <mxPoint x="440" y="343.33333333333337" as="sourcePoint"/>
                        <mxPoint x="440" y="450" as="targetPoint"/>
                    </mxGeometry>
                </mxCell>
                <mxCell id="8" style="edgeStyle=none;html=1;exitX=0;exitY=0.25;exitDx=0;exitDy=0;startArrow=none;" parent="1" source="9" edge="1">
                    <mxGeometry relative="1" as="geometry">
                        <mxPoint x="430" y="250" as="targetPoint"/>
                    </mxGeometry>
                </mxCell>
                <mxCell id="7" value="" style="shape=image;verticalLabelPosition=bottom;labelBackgroundColor=#ffffff;verticalAlign=top;aspect=fixed;imageAspect=0;image=data:image/png,iVBORw0KGgoAAAANSUhEUgAAAAUAAAASCAYAAACTvBTGAAAACXBIWXMAAA7DAAAOwwHHb6hkAAAAGXRFWHRTb2Z0d2FyZQB3d3cuaW5rc2NhcGUub3Jnm+48GgAAAL9JREFUGJVNz79Kw2AUh+Hnaw41iBDiVkdRsNYbUHBzUfCeXHpLgrP34eIuKC0hSZM4+FW6vuf37ySwtsCr3r0XmxmoPKhsnXqGPXxUW6g9QWR4Z2YwuYXkXW3yJfkwOjeqw9yNMgft0FmGysoRCvRorELp2gnmaDBahXBljuNsD8vQudRka4veRdhaGPK4Do2zsFFoc9EOrVn4kfILTOil8J1hwojdIdwr/2FxoByksPGG0qSQfKKJv1tOTRKmX/5mNzHpWdJaAAAAAElFTkSuQmCC;" parent="1" vertex="1">
                    <mxGeometry x="430" y="320" width="5" height="18" as="geometry"/>
                </mxCell>
                <mxCell id="9" value="" style="whiteSpace=wrap;html=1;aspect=fixed;fillColor=none;" parent="1" vertex="1">
                    <mxGeometry x="260" y="70" width="350" height="350" as="geometry"/>
                </mxCell>
                <mxCell id="10" value="" style="edgeStyle=none;html=1;exitX=0;exitY=0.25;exitDx=0;exitDy=0;endArrow=none;" parent="1" source="7" target="9" edge="1">
                    <mxGeometry relative="1" as="geometry">
                        <mxPoint x="430" y="250" as="targetPoint"/>
                        <mxPoint x="430" y="324.5" as="sourcePoint"/>
                    </mxGeometry>
                </mxCell>
                <mxCell id="14" style="edgeStyle=none;html=1;exitX=0.5;exitY=0.5;exitDx=0;exitDy=0;exitPerimeter=0;" parent="1" source="11" target="9" edge="1">
                    <mxGeometry relative="1" as="geometry"/>
                </mxCell>
                <mxCell id="11" value="Actor" style="shape=umlActor;verticalLabelPosition=bottom;verticalAlign=top;html=1;outlineConnect=0;" parent="1" vertex="1">
                    <mxGeometry x="395" y="99.99" width="30" height="60" as="geometry"/>
                </mxCell>
                <mxCell id="13" value="" style="shape=flexArrow;endArrow=classic;html=1;entryX=0.664;entryY=1.003;entryDx=0;entryDy=0;entryPerimeter=0;" parent="1" target="9" edge="1">
                    <mxGeometry width="50" height="50" relative="1" as="geometry">
                        <mxPoint x="490" y="180" as="sourcePoint"/>
                        <mxPoint x="510" y="420" as="targetPoint"/>
                        <Array as="points">
                            <mxPoint x="490" y="320"/>
                        </Array>
                    </mxGeometry>
                </mxCell>
                <mxCell id="16" value="" style="rounded=1;whiteSpace=wrap;html=1;fillColor=#00CCCC;" parent="1" vertex="1">
                    <mxGeometry x="510" y="75.83" width="70" height="35" as="geometry"/>
                </mxCell>
                <mxCell id="17" value="" style="triangle;whiteSpace=wrap;html=1;fillColor=#33FFFF;rotation=-180;" parent="1" vertex="1">
                    <mxGeometry x="580" y="80" width="20" height="26.66" as="geometry"/>
                </mxCell>
                <mxCell id="18" value="" style="ellipse;whiteSpace=wrap;html=1;aspect=fixed;fillColor=#00CCCC;" parent="1" vertex="1">
                    <mxGeometry x="520" y="83.33" width="20" height="20" as="geometry"/>
                </mxCell>
                <mxCell id="19" value="" style="ellipse;whiteSpace=wrap;html=1;aspect=fixed;fillColor=#00CCCC;" parent="1" vertex="1">
                    <mxGeometry x="550" y="83.33" width="20" height="20" as="geometry"/>
                </mxCell>
                <mxCell id="20" value="=" style="text;html=1;strokeColor=none;fillColor=none;align=center;verticalAlign=middle;whiteSpace=wrap;rounded=0;fontColor=#1A1A1A;" parent="1" vertex="1">
                    <mxGeometry x="580" y="86.66" width="30" height="13.33" as="geometry"/>
                </mxCell>
                <mxCell id="22" style="edgeStyle=none;html=1;exitX=0.5;exitY=1;exitDx=0;exitDy=0;fontColor=#1A1A1A;" parent="1" source="21" target="18" edge="1">
                    <mxGeometry relative="1" as="geometry"/>
                </mxCell>
                <mxCell id="21" value="menu" style="ellipse;whiteSpace=wrap;html=1;aspect=fixed;fillColor=#00CCCC;" parent="1" vertex="1">
                    <mxGeometry x="500" y="15" width="45" height="45" as="geometry"/>
                </mxCell>
                <mxCell id="25" style="edgeStyle=none;html=1;entryX=0.619;entryY=0.091;entryDx=0;entryDy=0;entryPerimeter=0;fontColor=#1A1A1A;" parent="1" source="24" target="19" edge="1">
                    <mxGeometry relative="1" as="geometry"/>
                </mxCell>
                <mxCell id="24" value="Setting" style="ellipse;whiteSpace=wrap;html=1;aspect=fixed;fillColor=#00CCCC;" parent="1" vertex="1">
                    <mxGeometry x="550" y="12.5" width="50" height="50" as="geometry"/>
                </mxCell>
                <mxCell id="26" value="score,health bar" style="rounded=1;whiteSpace=wrap;html=1;" parent="1" vertex="1">
                    <mxGeometry x="260" y="70" width="120" height="60" as="geometry"/>
                </mxCell>
                <mxCell id="29" value="" style="shape=image;verticalLabelPosition=bottom;labelBackgroundColor=#ffffff;verticalAlign=top;aspect=fixed;imageAspect=0;image=data:image/png,iVBORw0KGgoAAAANSUhEUgAAAXcAAADhCAYAAAAziPUUAAAgAElEQVR4Ae19CXRU15km3dPTTm/p03PaSWbaBjtOOt0+me6kp8fJpJNMZ3OczEmme7qdZLonGcc+FgZU7y7vVZW2KkoSQiw2tnFksFkaaMCAWQRiF4uMwIAhAdo2Y2MMBgmE2LSrVALpzfmhFJWkKtWrV/e+9a9z6vDqLf9/3/d/38fVW+6dMAE/iAAigAggAogAIoAIIAKIACKACCACiAAigAggAogAIoAIIAKIACKACCACiAAigAggAogAIoAIIAKIACKACLgagYl9Uz59X9/kz7r6JLDxnkcAeer5EuMJikZgUrygdFJPwQzRcTEeIiASAeSpSDQxli8QQNH4osyuP0nkqetLiCdgNQIoGqsRx3xmEECemkENj/E1AigaX5ffNSePPHVNqbChTkEAReOUSmA7xkMAeToeOrgNEUiDAIomDSi4ynEIIE8dVxJskNMRQNE4vULYPkAAeYo8QARyRABFkyNguLstCCBPbYEdk7oZARSNm6vnn7YjT/1TazxTQQigaAQBiWGkIoA8lQovBvciAigaL1bVe+eEPPVeTfGMJCOAopEMMIYXggDyVAiMGMRPCKBo/FRt954r8tS9tcOW24QAisYm4DFtTgggT3OCC3dGBPD5YeSAOxBAc3dHnbCVDkIAReOgYmBTMiKAPM0IDW5ABNIjgKJJjwuudRYCyFOJ9ZjYO/l1/HoQg3jB2xN7Ck47uLbzc6G1g88D9ZOPh3iMp7lwWvq+E3sn/yN+vYfBpPjTqyf2FqwXXduHLz7z5CPHppR87eC0md9oKJz3zfppL397+7Sl391auPqxusJ1Q99H66at+nrjtFl/9c4Umq4N9/VNfiwXcqeLgeuM8/azN6f80yMnpoagZo/WTXvtf62nR360ml380VKl//HFAT31++N/If0/WcG6f7KS3/zJan758TXszN9tpA3f2TZtxX9vLJydqaZm6iGLp2baku6YXHmaC6dxX0TAFAIi/txljH2NEFISiUR2lJaWntU0rVdV1VvRaLTzueeea6upqelYunRp15o1a+Lbtm3Td+zYcedbW1vb/+qrr3bOnj27raioqJdSqofD4daysrIj0Wh0MaV0GmPs25TSB0ydHB40LgKFhYUPAsaU0kVFRUXHw+FwRzgc7oV6QF02b95868CBA/rp06f1S5cu6T09PXrqp7u7W79+/fqdbR9++KF+8uRJvaGhQYe6Llq0qHPmzJkdnPNbJSUl/y8UCj1LCPkOY+x3xm1Uho0ieJohNK5GBLyJgBnRBAKBL1NKS6PR6ClN0/rmzJnTUVtbe+vUqVP65cuXx5hAqiFkW7569ap+5swZ/fDhw/rWrVv16urqDjB9xlg3IWQ9Y+z/BgKBe71ZDflnRQj5EqV0LmPsDOBaWlras3r16jjULh6PZyuPqe1nz57V6+vr9Zqamk5VVfs1TTtCCHk6FAr9gdEzNsNTo7FxP0TAkwgYFQ3n/H5CSBnn/Dz0xsAQoLdmxae3t1c/ceKEvnLlyng4HO4DU+Kcv0EImRwOh//Qk4UReFKMsc9QSmNQO8DuxRdf7Ni/f/+dHrcV9UvNAb39vXv36tOnT++BtsB/2JTS72U7XaM8zRYHtyMCvkEgm2gIIf9ECNkHQozFYj2NjY16X19fql4tX25qatJ37dqlV1ZWtkG7KKWbCCE/9k3RDJzo1KlTP0Up5Zzzk6qqJhYsWHD9+PHj0nrnZkjw/vvv64sWLbpj8oyxC4SQpzKdWjaeZjoO1yMCvkUgk2jA1Cmld/50r6mp6X7vvffM6Ff6MTdv3oSeYLy6urqFc95NKV0SCAQe9mtBCSGfI4Ss4pzHX3311eZ3331Xeg3yTQCX4latWtUP/1GDySuK8vPR9cvE09H74W9EABFIIjBaNIyxH3HO3wehLV26tA9upLnlA3/y7969uy0UCnVqmrYtEAh80S+FJoT8haqqm4PBYPfWrVs7Rt/8dEMNOzs74WasDjfjGWMfMcYeHarfaJ4Orcd/EQFEIAMCQ6JRVXUSpbQeTH358uV9bW1tbvCDjG08dOhQorS0tLOoqGg/Y+yvM5y+61fDuRUXF+8rLi7u3rdvX39/f39GTNyyoaurS1+2bNmdeyuMsVVTpkz5oyGeur5geAKIgFUITOp5uuxLv5pSzxiLz5gxI/7RRx+5xQOytnNwcFD/5S9/CT3BAc55gjHWQimFm4rSv7LrB0+9hEKhA2VlZb1vvvlmVizcuAPcsK+qqopzztv/66ln1k3qKZghG1eMjwh4AoFAIPDQd3ZNu/TYjsDAwYMH3ah/Q22G6/JggJFIpDcUCv1KUZTvw7PzMr+yCAI1U1X1dU3TEnv27BkwBIDLd3rjjTf0722epn/9wNTTuTw+KasGGBcRcDQChJDHobf+vxvLblV1r3O5/I01f2BgQD948OBAOBzu0TRtLTze6egipTQuEAh8nFI6nzHW//rrr3e78Zq6sSql36u6ba3+w33qbVVVm/x0LyWFAriICIyPwBNPPPExxthSxtjA7t27B+f3b9Xn9temV5RH18KjnJs3bwaD72GMRWOx2G+Pj5q9WymlP2WMXV+wYMHNGzdueLQq45/WS7e26bP7NuqrV6++RSntJ4RMtbcqmB0RcBACjLFPc84/LC0t7Tt//vwdNYFo/GbuQzbS3t6uL168+IamaU2KonzLQaW60xTO+Z9yzhuj0ejNc+fODTXbl/+m8jR5HwUMfqHTaobtQQQsRwCe/eacX50/f34fvPE59EkVzdA6v/37wQcfDIZCoW7O+XJN037P8uKkSUgpfRKeVV+7dm337du3/VaSMec7mqfwiG5paSncbN0Ui8V+Kw2EuAoR8D4ClNK/4px3Ll++PAHXnVM/o0WTus1Py/Af3ssvv9wdDAbhJZrP28UKGFhLVdUNMIAXvMGJn7sIpOMpPBc/a9Ys+E/5QEFBwe/aVTPMiwjYggCM2MgY662vr7+VzijSiSbdfn5Zd/To0UG44RoKhZ6xumCc878MhUKXFy5cGIcXsvAzjEAmnsJz/a+88kqXqqqncJwhqxmL+WxDQFGUr6qq2vXOO+8Mq2TUUibRjNrNVz9hGNs5c+b0RaPRPVY9eldcXKyFQqGEV59Zz5dA2Xi6atUqMPh/mzp16u/bJjhMjAhYgQC85MI573n77bfH1VU20Yx7sMc3wrjzJSUlNymlX5BVM+hthkKhHVVVVX0wxgp+0iNghKcwhjzn/JisWmFcRMB2BGCIV85515EjR7LeiTMimvRy88dauO5dVFTUFwqFVNGFhee1NU1rXbJkSSKRSPgDUJNnaZSnL774IowZv1Z0rTAeImA7AvCyC9wUbGhoMDTIiFHRmNSkJw6DZ8urq6t7i4qKNot6Jp5S+s+c8/59+/YNegIkySdhlKfwn+SsWbM6g8Fgke1ixAYgAiIRKCoqatiyZYvhKXWMikaydl0RHgZUKyoq+iDfN1s55/Nh0hGYoQg/xhDIhafw9m5paWkXpfSbIrWFsRAB2xDgnFc8//zzncbkcnevXESTS1yv7tvY2DigaVoHPIWUa6Hh+rqmaQdmz57dDS9Q4cc4ArnyFF7S0zStPRAI3JdrnXB/RMBRCCiK8lgoFOrt6Ogwrhhd13MVTU7BPbozvC1aUlLSRQj5mVESKIoyUdO0s8uXLx85y7RHMRJ9WmZ4umvXrv5gMHjCaI1wP0TAcQgQQj4JN1DNvPRiRjSihevGeNDzjkQiPaqqlmcjRPIlspuvvfZaHIYhxk/uCJjhKWA9b968LsZYdbYa4XZEwJEIwGzyGzduNHydPVVaZkSTeryfl2FSicrKSnhDclUmYsBfVDD6Zl1dnb0Tz7q8UGZ5Cn/Jwl+0lNL/lqlGuB4RcCQClNJAZWVll1ntmhWN2XxeOw5u3sEr8Kqq1o8mCNzQY4zd2r9/v6Enl7yGjcjzyYenx44dGwwGg+dxDJrRDMXfjkUAZriHwaWGRng0I6Z8RGMmnxePgSGE582b161p2kEYUhkIkxz2oQ9uwHrxnK0+p3x5Om/evA5CSNCxYsaGIQKpCDDG1sNr1/kILV/R5JPbS8fCGCe/+MUvYIz4I5TSv+Wc9x0/fhwvsAsqcr48bW1t1eGN7UAgcG+qhnDZQQhMij/zzxPjk3/m9+8jJ6ZU/eNqmngtfkBff/uw6e8ziYX6U4ka08fnk9uLxxbum9X/+Co68OwHryGmefByNDdE8LT4WE38f9Qph/zuHannP0GP/aZj7H1Sb0FiUm/Bqom9BSv8/P3K8Wlt/6dl7m2aWKrn8/1eX6X+aLw8rxj55Lfi2G//kuvfPEYt+07qLtAf6p2qK4nFnsbVitoN5RDBUyW+WP/a0cL+z16dvMXP3pFy7rcn6IF7HGXujmqQDcjA/KexWKxNxF+8+f65K6INsmPABNkwhIBV3wc7J98x9z497SjLsk/Xk/FF8RSG5QgGgxttkK3jUk7qndznKC+FnrujGmRDyVRVff/48eNCRCxKNEIa45EgaO7iCymKpzD2TDAY7A0EAg/ZIF1HpURzd1Q5JkxQFOX78HakKPmIEo2o9nghDpq7+CqK5On27dsTwWBwkcOkbXlz0Nwth3z8hKFQqFHk43UiRSNe0u6MiOYuvm4ieQrvJiR77x8fX23e3orm7qD6wtye4XA4Do/difqIFI2oNrk9Dpq7+AqK5un69ev7w+Gwr4cFRnN3kLmrqrqkrq5O6F060aIRL2v3RURzF18z0TxtaWnRi4uLLztI3pY3Bc3dcsjTJ4TZ3eHFmGvXrglVjmjRCG2cS4OhuYsvnAyeVlVVdVBK/ya94ry/Fs3dITUmhDxVXV0tfBBwGaIRL213RURzF18vGTw9cODAYDgczjjom0OkL60ZaO7SoM0tsKqqhw8ePCj8dXYZohEvbXdFRHMXXy8ZPIUbq5qm9YqaOjE3Rdu/N5q7/TWYoGnaJxhjt3t7e4WrRoZohDfSZQHR3MUXTBZPa2pq2hhjP3CAzC1vApq75ZCPTUgIYQsXLrwpXjI4E5MMTNHcxaMqy9zhZcDi4uI1Y1Xn/TVo7g6osaqqjUeOHBGvGJxmTwqmaO7iYZVl7snJPG46QOaWNwHN3XLIRyaE64GU0oHr16+LVwyauxRM0dzFwyrL3KGlkUgExnr/3Ejlef8XmrvNNSaEfFfkcAOjZSdTNKNz+eU3mrv4Ssvk6apVq3oIIZNtlrrl6dHcLYd8ZEJCSNWyZcs6xcvlbkSZopHVZqfHRXMXXyGZPIXr7iUlJRtGKs/7v9Dcba4xTN321ltviVdLMqJM0UhrtMMDo7mLL5BMnsJ19+Li4is2S93y9GjulkM+MiG8lSrrejtIUKZoxEvcHRHR3MXXSTZPw+EwTMHnq4HE0NxHeq2lv+AmD+dc6Fgyo2UnWzSj8/nhN5q7+CrL5umcOXPaAoHAly0VuM3J0NxtLAAh5B/Ky8s7xEtlOKJs0Qxn8s8Smrv4Wsvm6YoVK7oopU/aKHfLU6O5Ww75cEJKaeTll18WMp1eJrnJFk2mvF5ej+Yuvrqyebpnzx6dMTZnWH3eX0Jzt7HGlNJlmzdvToiXynBE2aIZzmTfUnV1tV5RUWHZF81dfK1l8/TkyZN6aWnpVhvlbnlqNHfLIR9OqGnaocOHD4tXSkpE2aJJSWXbIk6QbRv0whLL5mlzc7NeVlZ2elh93l9Cc7exxsFg8NKZM2eECSRdINmiSZfT6+uw5y6+wrJ52tnZqRcVFV2zUe6Wp0Zztxzy4YSc896LFy+KV0pKRNmiSUnlm0U0d/Glls3TRCIB86r2DKvP+0to7vbV+DcopfqVK1fEKyUlomzRpKTyzSKau/hSW8FTSumgfXK3PjOau/WY38nIGPsPYO5wvVjmxwrRyGy/E2OjuYuvihU81TQt8cQTT3zMJslbnhbN3XLI7yZkjP0JmHt3d7d4paREtEI0Kel8sYjmLr7MVvC0uLi4Z+rUqb9vk+QtT4vmbjnkdxNyzu8Hc+/v7xevlJSIVogmJZ0vFtHcxZfZCp5Go9GOUCj0BzZJ3vK0aO6WQ343oaqqk8DcZX+sEI3sc3BafDR38RWxgqeRSKQTzd0mw4O0k3oLEhP0wD02NsGS1IqiTARzj8fj4pWSEtEK0aSk88Uimrv4MlvB01Ao5KvJsrHnbomVj00SCATuBXNva5M6+gCOCineh3Q0d/GgWmHujLGBsUr07ho0d5tqq2na74G5X758WbxSUiJaIZqUdL5YRHMXX2bZPIXn3DVNi9skd1vSornbAvvdpGDu586dE6+UlIiyRZOSyjeLaO7iSy2bp+3t7fCG6lUb5W55ajR3yyEfTsg5v/HOO++IV0pKRNmiSUnlm0U0d/Glls3TlpYWmCj7vWH1eX8Jzd3GGmuadhrmd5T5kS0amW13amw0d/GVkc1T+As5Fou9YaPcLU+N5m455MMJVVXd09jYKF4pKRFliyYllW8W0dzFl1o2T0+dOgVDQv/LsPq8v4TmbmONCSE169atk/ospGzRiJe58yOiuYuvkWye7tix4zYh5Gkb5W55ajR3yyEfTkgIUZ599lmpg8vIFo14mTs/Ipq7+BrJ5umCBQvaCSFfH1af95fQ3G2sMSHku6FQCHvu4r1CakQ0d/Hwyjb3srKyzilTpvyRjXK3PDWau+WQDyccGl8GHtOS9ZEtGlntdnJcNHfx1ZHJU3jGPRwOdwwrzx9LaO4215lz3nn69GnxaklGlCkaaY12eGA0d/EFksnT8+fP69Fo9E2bpW55ejR3yyEfmZAxtmfv3r2D4uVyN6JM0chqc65xcYLsXBFz3v4yeXro0CHouVePVJ73f6G521xjQkj1kiVLpF2XkSkap1gETpDtlEqYb4dMnq5YsaJTUZRv2Sx1y9OjuVsO+ciEhJDvFBUVSZuxQ6ZozEvZ3UfiZRnx9ZPJ05KSkq6RqvPHLzR3m+scCATuoZTebmpqEq8YXcdRISWgiuYuHlRZ5n7hwgUYduBXNsvclvRo7rbAPjIpY6xh586dt8VLBs1dBqZo7uJRlWXu27dvv80510Yqzh+/0NwdUGdCiFpdXS3lurss0YiXt3siormLr5Usns6YMaODUvqAA2RueRPQ3C2HfGzCwsLCBwkhg11dXcJVI0s0whvqooBo7uKLJYOnMPl8aWlpy1jF+WMNmrtD6qyq6rmjR48KV40M0QhvpMsCormLL5gMnh4+fBieb/+FQyRueTPQ3C2HPH1CQkjVokWLekTLRoZoRLfRbfHQ3MVXTAZP58+f30Up/fP0ivP+WjR3h9S4sLDwz2BmJvhTUuRHhmhEts+NsdDcxVdNNE9hbuKysrKLDpG3Lc1Ac7cF9vRJVVU9tWfPngGR0hEtGpFtc2ssNHfxlRPN002bNiWCwWAovdL8sRbN3UF1ZoyRSCQi9K6qaNGIl7X7IqK5i6+ZaJ6Gw+EeVVX/2EHytrwpaO6WQ545IQxJCpdm3nvvPWHqES0aYQ1zcSA0d/HFE8nTY8eODRYVFW3MrDR/bEFzd1idCSFLYWIBUfIRKRpRbXJ7HDR38RUUydPZs2e3McYecZi0LW8OmrvlkI+fUFGU/0IpHezo6BCiIJGiEdIgDwRBcxdfRFE8vXz5sl5cXPz++Crzx1Y0dwfWmRCyr66urleEhESJRkRbvBIDzV18JUXxdOnSpTcVRfm+A2VteZPQ3C2HPHtCRVG+omlavKcn/8feRYlGvJzdGxHNXXztRPAUeu0lJSXYa09aDJp7dq+1ZQ9K6e7169fn/dC7CNGIl7K7I6K5i6+fCJ6+9NJL7YqifNUWwTowKZq7A4sCTUpee9fhZYx8PiJEk09+Lx6L5i6+qvny9Ny5c9Brf8uhcralWWjutsBuLCljbN2yZcs685FSvqLJJ7dXj0VzF1/ZfHk6c+ZM6LV/3piy/LEXmruD6wyjRcJEHq2trabVlK9oTCf28IFo7uKLmw9PT5w4ARNybHGwlG1pGpq7LbAbT0oIWVBTU2P6rdV8RCNewnIi4gTZcnC1Mmo+PI3FYh2BQOA+46ryx55o7g6vcyAQuJdz3n327FlTWstHNKYS2nAQTpBtA+iCU5rl6e7du/WKiornHC5jW5qH5m4L7LklJYRMjUQiPYlEImdJmRVNzol8dABelhFfbDM8vXbtGkzG0VpQUPDvc1OUP/ZGc3dJnVVVfXfDhg05u7sZ0YiXrrciormLr2euPB0cHNRnzZrVrSjKN1wiYcubieZuOeTmEjLG/hoGFYPZ3HP55CqaXGL7dV80d/GVz5Wne/fuvV1SUrLenJr8cRSau4vqTAiZE41Gu2/dumVYXbmKxnBgH++I5i6++LnwFO6xFBcX3wgEAh93kXwtbyqau+WQ55eQMXamrq4ublReuYjGaEy/74fmLp4BufD02Wef7eKc4+WYLFaC5p4FIKdthqFMGWO3mpqaDCksF9EYCog76Wju4klglKcHDhy4XVZWtsppunRie9DcnViVLG0ihEQrKiq6jDw9Y1Q04uXq3Yho7uJra4SnFy9ehKdjzjPGfieLRHDzhAkT0NxdSgPOeeMrr7yS9eUmI6IRL1VvR0RzF1/fbDzt6uoCY+9kjH3GpZK1vNlo7pZDLiYhIeSTjLGO+vr6cR+PzCYa8TL1fkQ0d/E1Ho+nAwMD8NhjF2PsKTHq8UcUNHcX15kQ8l14PPL999/PqLbxRJPxINwwLgJo7uPCY2rjeDxds2ZNTzgcXu5iqdrSdDR3W2AXl5RSOkXTtD54PCzdZzzRpNsf12VHAM09O0a57pGJp0ePHr1VUlLSGIvFflOcavwRCc3dA3WmlD5fUVHRke4GaybR5Co+3H8YATT3YSxELaXjKdxAjUQi7xUUFPyuB2Rq+SmguVsOuZyEqqpuWbx48ZgbrOlEI0qQfo2D5i6+8qN5ev36db2ysvIyDJwnRzHej4rm7pEaP/HEEx/TNO3tlStXjph4dbRoxMvSfxHR3MXXPJWnHR0dYOw3FEX5rEfkactpoLnbArucpKqq/rGqqhc3bNjwa4NPFY14SfozIpq7+LoP8RQmhS8vL+/QNO1LclTin6ho7h6rdSAQeIhz3r5t27ZekOCQaMTL0b8R0dzF1x54Wt27Xq+qqmonhPyDx2Rpy+mgudsCu9ykySEKuvfu3ZtAcxdvRGju4jF9oW+L/veN4QTnXJOrDv9E9425wyv7lNITPvq+RykdoFXhweCcMn3u3Ln4FYTBz2cp+pOziT5n7hzEVACmc+bM0adF2eBXD0494R/rlX+mvjF3zvn9lNIv+OlLCPnx368u7CdvzRtsbm7W8SsGgy+cmaJ/8cNp+vnmC4ipAF698MILPT/YGDg/qadghnzL808G35i7f0o68kw/f2Hy/Ed3FvYdPXpU/N/SDomIE2Q7pBAmmrFw4cJuTdMOTIoXlKK5j9Ruvr/Q3PNF0OHHg2gebpr8iqqqnW+++eaACf05/hCcINvxJRrTQJhwZv78+T2apjUGAoF70NzFGwmau3hMHRVxSDSEkL/gnHcdOHDAkwY/xj0krsAbqvmBC29Sv/DCC3FN046AsYNghnjqKPG4vDFo7i4vYLbmp4qGMfafVVXt2rdvX37q9PnRaO7mCdDX16c/99xzvWDsqcMKpPI0G6dxuzEE0NyN4eTavUaLhnP+l9CD37lzp/GJWM1r2ZNHormbK2s8Htdnz57dDXMRwBvVqaIazdPUbbhsDgE0d3O4ueaodKJRFOXz8KLTpk2b+szJ1N9HobnnXn9483TmzJmdnPOGdOJJx9N0++E64wiguRvHypV7ZhLNkMFv3rzZ8GTbuUvam0eguedWVzB2mBaSMdYQi8V+O52QMvE03b64zhgCaO7GcHLtXuOJBm6yMsbaNmzYcGeogtwk69+90dyN1767uxsGAeuklO4afSkmVVTj8TR1P1w2jgCau3GsXLlnNtEEAoGHOec3169f/+vBxoxL1397Dg4O6mjuxuoO856Wl5d3UUq3ZBNPNp5mOx63j0UAzX0sJp5aY0Q0YPDQg1+7di324A34Fpp7dpA6Ozv1WCwGPfatjz/++L/LJiojPM0WA7ePRADNfSQenvtlVDSc8z/lnF9bs2YNGvw43oU993HASW6C8dij0ShcY19nVFBGeWo0Hu43YQKau8dZkItoYHIEznnr6Ak/ssvZX3tgzz1zvcHYI5FIFyHkX3ORVi48zSWun/dFc/d49XMVDWPs02jwmc0LtqC5p8cnaeydhJDlucoqV57mGt+P+6O5e7zqZkSjKMpEznnzypUr8RLNKB8bGBhAcx+FCfxMXorpppQuMiMpMzw1k8dPx6C5e7zaZkVTWFj4n2DKvnXr1uGLTqPMDHvuIwGBp2KmT5/ezRirMSsnszw1m88Px6G5e7zK+Yhm6tSpn9I0rXnt2rWJkXL276/bt29jzz2l/MnHHXsYY8vykVI+PM0nr5ePRXP3cnUFjLanquokTdOubty4EceiSZoa9tzvAgHGXlFR0aOq6op8ZYTmni+CY49Hcx+LiafWiBANpfQBVVWvbdiwwfc9eOy53zV2ePO0vLwcLsVsmDBhwm/kKxoRPM23DV47Hs3daxUddT6iRFNYWPhnnPMbtbW1vr8G7/eee3KsmA5K6cpRdDP9UxRPTTfAgweiuXuwqKmnJFI0hYWFD6qq2urnwcZgBiE/mzv02CsqKtoppUtSeZbvskie5tsWrxyP5u6VSmY4D9GigcckVVW9VFtb68uxaPr7+31r7inG/nIGupleLZqnphvioQPR3D1UzHSnIkM0Q49J1tbWdqc8OGHbopUTZJeXl/vS3OFSTHl5+U1K6ex0PMt3nQye5tsmtx+P5u72CmZpvyzRwGOSqqqe27RpU6dtrp5MbOUE2a2trb4zd+ixx2KxG5TS57PQzfRmWTw13SAPHIjm7oEijncKMtcCatwAAAu1SURBVEUTCATuU1W1acuWLY7owVvxn4zfLsskb55Cj33+eDzLd5tMnubbNrcej+bu1soZbLds0cBz8Jzzlrq6Ol8MVeAnc08aezshZIFBupneTTZPTTfMxQeiubu4eEaaboVoAoHAQ5zzq9u3b/f8c/B+MXcw9hkzZlhi7MBjK3hqRC9e2gfN3UvVTHMuVokGRpOEN1l3797db8XlEbtyJBIJz19z7+3tHZoab2EaSklZZRVPpTTeoUHR3B1aGFHNslI0yaEKmnft2uXZF536+vo8be5g7DNmzGhjjL0gioNG4ljJUyPt8cI+aO5eqOI452C1aAghn1RV9fy+ffs8eQ3ey+Yej8fB2OHmaWQcSknZZDVPpZyEw4KiuTusIKKbY4doNE37BBh8fX29556i8aq5Q4+9oqLiGqV0umgOGolnB0+NtMvN+6C5u7l6Btpul2gopf8RxoPfs2dPl13Xx2Xk9aK5wzkljX2uAUpJ2cUunko5GYcERXN3SCFkNcNO0XDO74fHJPfu3esZg/eaucOlmMrKyiuUUkuvsY/mu508Hd0Wr/xGc/dKJTOch92iST4mebO+vr5dRk/a6pheMncw9vLycjD2VzLQx7LVdvPUshO1MBGau4Vg25HKCaIhhHyOMXZtx44dHVabseh8YIheGBUSnmOPxWKthJCX7ODl6JxO4OnoNrn9N5q72yuYpf1OEQ08Bw+XaLZv335TtOFaGQ9uPLrd3MHYI5HIVUqpbdfYR9PWKTwd3S43/0Zzd3P1DLTdSaKB5+AZY01bt25ts9KQReYCY3SzucPUeGVlZXApxjHGDjR2Ek8NyMoVu6C5u6JM5hvpNNEwxv6Ec36htrbWldfg3dxz7+zsBGO/btfjjuOx2Gk8Ha+tbtmG5u6WSplspxNFA6NJgsFv3rzZdS86ubXn3tHRAZdiYAalYpNUknqYE3kq9YQtCI7mbgHIdqZwqmigB69pGhi8q4YqcKO5g7FHo9EuxljQTi6Ol9upPB2vzU7fhubu9Arl2T4niwYm/AgGg011dXWuGWzMbeYO19ij0WgnpZTnSSWphzuZp1JPXGJwNHeJ4DohtNNFA2PRaJp20S09eJiVyC03VJPG3s4YY07g4nhtcDpPx2u7U7ehuTu1MoLa5QbRJA0ebrI6/hq8W8wdjD0SicAgYFQQlaSGcQNPpQIgITiauwRQnRTSLaJJjib50datW3N+0cnKCbJjsZjje+5g7KWlpfAcuyuMHfTiFp46SdvZ2oLmng0hl293k2jgGjzn/KPt27fnNOm2lRNkNzc3O9rckz12GN0x5CbquomnbsEVzd0tlTLZTreJJjnpdvPOnTsdOVwwmKdTr7knjf2GoihFJuli22Fu46ltQOWQGM09B7DcuKsbRVNYWPigqqotu3btctw1eHgRyInmDsYejUZvUEpjyFM3IiC+zWju4jF1VEQ3mjsACKNJqqp63WlT9jnR3JPGfpMQUuUo8uXQGLfyNIdTtHxXNHfLIbc2oZtFA4ONqara6qRJt+GFICf13MHYp0+f3kEIiVrLLLHZ3MxTsUiIi4bmLg5LR0Zyu2hgsLFgMHhl9+7dt0QOAGY2lpPMHYw9FovBC0queSomk0jcztNM52XnejR3O9G3ILcXRAM3WUOh0OX6+nqznizsOKeYOxh7eXl5p6qqAQtoJD2FF3gqHaQcE6C55wiY23b3imhgTtZwONy8d+9eW3vwTjD3IWOnlBa4jY+Z2usVnmY6PzvWo7nbgbqFOb0kmuRYNM379++3zeDb29ttveYOY9tMnz69nRDyMwtpJD2Vl3gqHSyDCdDcDQLl1t28Jhq7Dd5OcwdjLy8vb6OUPulWPmZqt9d4muk8rVyP5m4l2jbk8qJokgZ/cf/+/beFXUw3GKitrc2WnjsYe0VFBQwC9pQNNJKe0os8lQ5algRo7lkAcvtmr4oGrsEHg8GWxsZGSw3eDnMfMnYv9tiH9OVVng6dnx3/ornbgbqFOb0sGs75/aFQ6EpjY6PBfnf+u1lt7kljb2OMFVpIG8tTeZmnloOZTIjmbhfyFuX1umgopQ9omtba0NBgyYQfVpo7DC8ci8XgzVNPGztIwes8tUjuI9KguY+Aw3s//CAaeNFJ07SWhoYG6VP2wQiUVryhCsMcwHjshJCnvcfKsWfkB56OPWu5a9Dc5eJre3S/iCY5J2vLnj17EvlffMkc4caNG9LNHZ7IKSsrg8msPfdUTCZB+IWnmc5fxno0dxmoOiimn0QDN1k1TWvatm1bPLM957dFtrnDXwZlZWXwuONPHUQj6U3xE0+lg5lMgOZuFdI25fGbaOAxSU3Tmjdt2iTlEs3169el9dwhdlFREYwV45se+5As/MbTofOW+S+au0x0HRDbj6KBsWg0Tbu8ceNG4TdZZZk7/EVQUlLS5UdjB5n4kaey7QHNXTbCNsf3q2iST9Fcra2tFTpUgQxzh5jFxcXdlNIpNtPFtvR+5alMwNHcZaLrgNh+EA0h5F1K6fk032bG2EA4HB6sqKiANzzz/k6fPl3oZZmUHnupA+hiWxP8wFOrwUVztxpxi/P5QTSKokyEnnq6L2PsMcZY79q1a2+Bkeb7PXv2rDBzT+mxP2cxLRyXzg88tRp0NHerEbc4H4rmzpR9XwaDr6ury/sa/LVr14SYO/wnU1xc3EkImWcxJRyZDnkqvixo7uIxdVREFM3dcjDGHuGcd+/YsSOva/BXr17N29xhTPjkzdOIo8hiY2OQp+LBR3MXj6mjIqJohssRCAQeVlW1raGhwfRgY62trXmZO0y0EYlEYM7TqcMtwyXkqXgOoLmLx9RREVE0I8vBGPuMqqqdhw4dMvU2Uz7mHo/H9Wg0epMxRka2Cn8hT8VzAM1dPKaOioiiGVuOQCDwRcZYz/Hjx3O+RHPlyhVTPfe+vj69srLyCiGkemyLcA3yVDwH0NzFY+qoiCia9OUghHydMdZ38uTJnMaiMWPuiURCr6qqaiaELEjfGlyLPBXPATR38Zg6KiKKJnM5FEX5Ftxkfffddw334FtaWnLquYOxz5w5s4VS+nzmluAW5Kl4DqC5i8fUURFRNOOXIxAIfJlz3nX69OkBIxfhczF3MPbq6uoWQkj5+K3ArchT8RxAcxePqaMiomiyl4MQ8iVVVaEHn9XfL1++bKjnnjT2K5TSWPYW4B7IU/EcQHMXj6mjIqJojJWDUvo3YPDZevBGzB2MfdasWXApZqax7LgX8lQ8B9DcxWPqqIgoGuPlUBTlG5zz+Ntvv52xB3/p0qVxe+7wuOOMGTNuUkrnGs+MeyJPxXMAzV08po6KiKLJrRyU0m9yzhMnTpxIa/DNzc0ZzR3mPK2srOxAY88Nc9gbeZo7ZtmOQHPPhpDLt6Noci9gsgfff+TIkTEGn8ncYUgBePMUr7HnjjccgTw1h9t4R6G5j4eOB7ahaMwVUVGUr3LO+w4fPjzC4Juamsb03Ht6evTp06e3E0KC5rLhUchT8RxAcxePqaMiomjMl0NRlK9wzvtPnTr1a4Mfbe7J59hhMusZ5jPhkchT8RxAcxePqaMiomjyK4eiKI+pqnrrzJkzdwz+woULI3ru8+bNu8oYwzdP84MZL8vkiV+6w9Hc06HioXVo7vkXkzH2g2Aw2AMTdaSO5/5czQutjLFo/hkwAvJUPAfQ3MVj6qiIKBox5aCU/q2maYmTJ0/e6bk/0DVZV8o0fI5dDLzYcxeEY2oYNPdUNDy4jOYurqiEkB9SSu+Y+8TugtsT9MA94qL7OxLyVHz9HWnu98cn/3xi/Omf4lcABr1Pvz6x5+nNXsbyh6unXfqfq6Zds+L7d/9a2P1A92R9Ym9BAnkqgJ9DOvcBTy3XYO/kW47qgEzqKVgysbdgBX5FYfD0iYk9Bf/mZTwndRWssvL7502T99zfM3mplzG1/ty8z1PrMS1YMUGP/Zb4vwkwoiMQ+JT+83s/qT/zCUc0BhuBCGRAAHmaARgBq/8/nzPIoiLV/kYAAAAASUVORK5CYII=;" parent="1" vertex="1">
                    <mxGeometry y="15" width="235" height="141" as="geometry"/>
                </mxCell>
                <mxCell id="30" value="" style="shape=image;verticalLabelPosition=bottom;labelBackgroundColor=#ffffff;verticalAlign=top;aspect=fixed;imageAspect=0;image=data:image/png,iVBORw0KGgoAAAANSUhEUgAAAbkAAADhCAYAAABV/ssGAAAgAElEQVR4Ae1dC5gkVXltjC8EFRUBFWZ3fSBiFIIEgs+gaPAR35hERBfI9u70dNc5NTPu+opOUFBE0eBH1CjKUz9BE5GgIsEXqBE3LqKAAroRIeIbgd1FRTffP1MNvbPTM1Vd91bdqjr7ff1tT/W9//3v+e/p0/fdaumfEBACQkAICAEhIASEgBAQAkJACAgBISAEhIAQEAJCQAgIASEgBISAEBACQkAICAEhIASEgBAQAkJACAgBISAEhIAQqD0CY3eMP3LPO1Y/pvYVVQWFQA0QEF9rEERVoVgElm1pv3HZpvbbii1VpQkBITAKAuLrKKgpT6MREGkaHX5VvmIIiK8VC5jcLR8Bkab8GMgDIZAWAfE1LVJKJwQSBEQaNQUhUB0ExNfqxEqeBoKASBNIIOSGEEiBgPiaAiQlEQKDCIg0g2jovRAIGwHxNez4yLsAERBpAgyKXBICQxAQX4cAo8dCYBgCIs0wZPRcCISHgPgaXkzkUeAIiDSBB0juCYEBBMTXATD0VgikQUCkSYOS0giBMBAQX8OIg7yoEAIiTYWCJVcbj4D42vgmIACyIiDSZEVM6YVAeQiIr+Vhr5IrioBIU9HAye1GIiC+NjLsqnQeBESaPOgprxAoFgHxtVi8VVoNEBBpahBEVaExCIivjQm1KuoKAZHGFZKyIwT8IyC++sdYJdQMAZGmZgFVdWqNgPjqMbxjm1efp1cNMdjS/u7YpvbVAcf2FI/NuramA46nvkfyfJeKr/44O7Z59cv1qh8Gy7as+tjY5vYnXcd275+tOerg9eOvf9rXJo5/xpcn3n3oxZ1TD/v8xGl/c2H3nMMv6J7bf9nf9vmBG8Zfu5APe96x+nB/rbq+lhfCUs/S8/cxvx5/5UEbOmsP/XL35OdcMPHxF5zb/eqLz+pe+/LTuluO+HBv6+Dr5R/pbX7ZR3u/esnp3Zteclb3hy86p3vl8z/ZvfjZF06c+YxLuyce8L1xusLeF19d+Se+1vc7pbI1czH8AeBgAK8FcAbJr5P8BYAtAK4H8BWSnyF5NoD3kzyR5EzyOgHAxwFcSvJGklsB/JjkxQBOJTkJ4G/iOH50ZQGW48Ej0O12V5CcIPkhkl8GcBOAm60tAzgXwDsAdEk+d3Jycr/x8fEHDVZqYmLiIWYDwBOjKHoqyZdz7p+19U+Q/FbCh28AOB7As+M43nHQRtr3LviatiylEwK1QGAU0kRR9Ock15L8LIDfGolJnhLH8StI7j81NbXrqODEcfzIOI6fEcfxa0wIE5HcSnIzgPNJjk9OTu41qn3lEwKGgP0wI3kSgGvsxxXJGwB8gORL161b90AfKAF4OsnXA7iA5O3WtgGsWrt27f3TljcKX9PaVjohUEsE0pLGhIvkNIBvJ18KZ0ZR9KxRf5FmAbPT6ewM4IVJ7262x0fym3EcI4+gZvFBaauPgI0IJCMI1yVt+KJktOCJRdfO2q2NfpCc9QXAJ62nuJQfafm6lB19LgQag8BSpInj+EUAPtcfSoyi6HW9Xu+hZQLU6/X2Tb4gbGjUhjg/Zz2/6enpncr0S2WHh0Cn09kjEbL11nsieR7JI3u93gNC8TaO48NsWDQR3o0Ajh3m21J8HZZPz4VAYxEYRhoTN5IbEhFZD+BlIYI0PT29mw1hkrRf5beS/Fiv1/urEH2VT8UhAOCxAM4BcBvJ00k+v7jSRyspiqLHkDwt4dyPoig6er6lYXydn05/CwEhkCAwnzQ2BJnMsVkPyebAnlIVsOzXOYDVAH4E4Iskn1kV3+WnGwRs8Ucy9PcLkm+Zv0jETSl+rQDYHcC7AGyythzH8XP6Jc7na/+5/hcCQmAIAn3SJHMEH09+RV5ov4SHZKnEYxuSInk1ycsAvKASTsvJkRGI4/jAZBWvzdlOFjFXPLKzKTMmoxRnJ8OYZ5tg9/ma0oSSCQEhYKQ58LvjtsT/VzYJXjdBsPoA+BqAy23xSpMjDuAqkhuLfPnGO9m+8nmS/2srFX2XV4b9ZFvClQB++ZffWXPusk3tt5Xhh8oUApVDgOTDnnlx57pnf3biDwDWVa4CGRyOouhQklcAWG9bFDJkrU3SKIrGSC4v8uULvF6v9yjbY5nMw671VU5IdgFEzz1/YuvTvjp+VZZtByHVQb4IgcIQsA2pAH592EWdG/f+aft9hRVcbkE7kPwH+9VvQ1uTk5N7l+uOSs+KgM272p7MZHP1yVWcc8ta58H0+/64/S/P+sKEjbps7PV6fzH4md4LASHQarVmZmbumZw68keS716xqf1PTRv+mJmZubdtZjeRNwxsH54aR/gIkDzKTiJJFpYsD99j9x7a9MLyW9tvB/BhAHcA6LgvRRaFQEURsOOHkmO3fhNF0fOsGk2eyE7wsF7BTdbDq2hYa++29bjtuK1kIVFlVvv6CMwgX6Mo+vvk5JQP+ChLNoVApRDodrsPtyOM7MQSe993fpA0/WdN+5/kAcmimwviOH5w0+ofcn1JHpNs4j7FeuAh+1qEb/P5GsfxE5JzXz9lozRF+KAyhEBwCNhCAzv4GMCF85dWzydNcM4X5NDKlSvvmxwgfWMURU8uqFgVMwQBa6fJ4cY/037Hu0FaiK+21cAWVNne0Ha7fb+7U+udEGgAAnYEFkn7onh3q9XaYX6VFyLN/DRN+juKosOTeR9bbbodXk3Coqy62kn/JH9ohxHYkHJZfoRY7jC+2o80kp8ysfN1wHSIeMinhiNA8nEAfk6yPQyKYaQZlr4Jz5MTJ74A4L/KPqezCXgP1pFkj+Rv6rrnbbCuo7xfiq8kP2hCp8VUo6CrPJVCIDm77+d2zNViji9FmsXy1v0zu+XAhnltj13d61p2/az3AeDfSX7PznAs259Qy0/DVxvmBfCNUOsgv4RAbgSs9wHgJwDesJSxNKRZykadP7fjopKLXI+rcz3LrJvt90rmjM/VTRKLRyItX+3AcjugenFr+lQIVBABW2FlR1iRfG8a99OSJo2tuqaxFZckv0ryEs13uI1ycsaoXYg75dZyPa2l5astQAHw33YHZD2RUK0ai4Bd1QHgjLQApCVNWnt1TpfcJP2jbre7T53rWVTd7IcYyV/YjdlFlVn1crLw1U6DSU730W0cVQ+8/J9DwCbrbU4jCx5ZSJPFbl3Tknw5gJ/Gcfy3da2j73pZb9h6xXa7++CeTd/l1sF+Vr7a3Yq2urrX6+1Zh/qrDg1GwDY0A/ht1ityspKmwRDfVfU4jh9vS9ztaLC7HupNKgTskOjkNoTTU2VQom0QGIWvJN+ohSjbwKg/qoaALRdOrk85Jqvvo5Amaxl1TJ+sBlxP8l+1ny5dhJOTZewyU8NM/0ZAYFS+AvgKgONHKFJZhED5CJA8z64dGcWTUUkzSll1y2PXnSSXsn5e+5IWj26yyX4TSd2FtjhUi346Kl/tWq1kz+whixagD4VAaAhEUfQSO2B41PulRiVNaDiU5U9y/JQt177croEpy4+Qy7VjuUj+jiRD9rMKvuXhK4BXAfi+zrisQqTl4ywCtqfIFkHYYohRIclDmlHLrFu+5PqiT5PcQHKXutUvT33iOH4aAOvBTeSxo7xzCOTlK8kvAXit8BQClUAAwMkkP5vH2bykyVN23fLa1g2SV05NTe1at7qNUh8AByc3CBw5Sn7l2R6BvHy1hWkkb9FxddtjG8yTZVvWHDm2ZfWrm/7a77rxdS85q7vl8T8eZy4s7lh13tjm9vm5bCged7XHwy/oXvLCj3X/75WvG39QMKQpyRG7AubpX+mcqrbl8PvKAV8P+9zE+YefP3Gp4nJ3XFpbZ+5REk22L3bZ5vbvlm1unzO2uX1mk18HbRi/cb8frPl2fgxWbRjb1L4yv51mx2MQv2W3t7e+eqZ30Patt9wnydL9jclK3CL+/6P46poX+fm67Lb2OYd8s3P7Y36++jOD7bbB7+9sbe3dp1x2DpRupAnKoQHfinpL8hCbi3NRXt7hDxc+1M3G8lvbfzr6OBwcWr1sj5rdLVjg63bx1W0rcMVXANGoK7Ld1qh8a8s2r74jKE0RaVotAJ9ztRHZFWnKb6rheGAit3Km91fheFSOJzYfJ766xd4VX5OzLX/Z6/Ue5dbD6lmTyAUWM5L728Sxq31ZrkgTGEylumMiF+JwZdGg2KpKiZxb1F3yleRbAJzq1sPqWZPIBRYzkmeSPMGVWy5J48qnqtuRyM1FEMAWiZzb1uySr3aAMwDrzTV6f6dEzm0bzWVtenp6N5K3ulz+65I0uSpXo8wSublgktwqkXPbsF3z1W6CABC79bJa1iRyAcULwJuzXKOTxnXXpElTZt3TSOTmIgzg9xI5t63dNV97vd6+AK5x62W1rEnkAoqX3fZtRyS5dMk1aVz6VlVbJnIhrq4sGk+Sf5DIuUXdB18B2EHjT3HraXWsSeQCiVVywO1Nrt3xQRrXPlbNnomcVle2WhqudN9yffCVZM8uW3bvbTUsSuQCiZPtafFxgrsP0gQCWWluSOTmoCc5uxk8qD1IpbUKNwX74Gtyg/hvZmZm7u3Gy2pZkcgFEK+VK1fe11aqdbvdFa7d8UEa1z5WzZ5Ebi5i6sm5b7m++Ery00297V4i576dZrYYx/ErAHwtc8YUGXyRJkXRtU1iIqd9chqu9NHAffEVwCubOmQpkfPRUjPatL1xAN6UMVuq5L5Ik6rwmiaSyM0FVj059w3cF187nc4edqC2e4/DtyiRCyBGdqNvFEVP9eGKL9L48LUqNjVcORupHQDcqdWVblutT74CuNau4nHrcfjWJHIlxyiO48fbfJwvN3ySxpfPodtVT24uQurJuW+pPvlK8oMAVrv3OmyLErmS4wOgQ/JiX274JI0vn0O3q57cXIQkcu5bqk++JvNyp7v3OmyLErmS4wPgLABv8OWGT9L48jl0uxK5uQhJ5Ny3VJ98Jfkwkj9w73XYFiVyJceH5HW+5uOsaj5JUzJ0pRWv4co56CVy7pugb74CuLlpBzZL5Ny309QW7c4n+6KYmpraNXWmjAl9kyajO7VIrp5cq9Vut+8F4A4tPHHbpH3zFcClvV6z7kKUyLlto5msWWMDcFumTBkT+yZNRndqkVwi12rZ6Rm6asd9c/bNVwAfIXmMe8/DtSiRKzE21tgAfMOnC75J49P3UG1ruHIuMro01X0L9c1XAOtInuje83AtSuRKjA2A423hiU8XfJPGp++h2g5V5ABcRXJjUS8Af9JwpdtW6puvAF5G8mNuvQ7bmkSuxPiQPNuuqPfpgm/S+PQ9VNuhDldGUTRGcnkRL9tUTHKzRM5tK/XNV5L7k7zMrddhW5PIlRgfAF8B8CqfLvgmjU/fQ7Udak+uSLzsUHGSt0vk3KLum68Adif5Q7deh21NIldifOzG3jiOX+TTBd+k8el7qLZD7ckViVccxzvaoimJnFvUffN1enp6J5K/cut12NYkciXGB8BP4zg+zKcLvknj0/dQbUvkZrcQ2PaXWyVybltpEXy1ewDdeh22NYlcifGxJdgkD/HpQhGk8el/iLYlcnMiB+C3Ejm3LbQIvlrcbLjZrefhWpPIlRgb2wg+OTm5n08XiiCNT/9DtC2Ra7Vs2Esi5751FsFXADd1Op2d3XsfpkWJXElxmZmZuYeJXBzHj/bpQhGk8el/iLYlcq2WfUmSvEU9ObcttAi+Avj+2rVr7+/W83CtSeRKjI2JXK/X29OnC0WQxqf/Ido2kTv6OBwcom9F+WQiB+DXEjm3iBfBV7tXTiLnNm6ZrDWJNCZyvi8xLII0mQJcg8Qmcq+e6R1Ug6qMXAX7kiT5mybxdWSwMmQsgq92SbMdy5bBrUonVU+uxPAB+L3vw1KLIE2JEJZStIYrWy07yV49OffNrwi+kvyDe8/DtSiRKzE2NqcRRdHhPl0ogjQ+/Q/RtoYrWy3ryQH4pXpybluob74mN5/c4tbrsK1J5EqMD8kb4zh+hU8XfJPGp++h2tZwZau1bt26B0rk3LdQ33ztdrsP14kn7uOWyWKTfhkC+DaA1ZkAypjYN2kyulOL5BqubLVI7iKRc9+cffO11+vtq7Mr3cctk8WGidyFJNdmAihjYt+kyehOLZJL5OZEjuQvmsTXIhqvb75GUfRkAOcWUZdQytBwZYmRIPkhkif4dME3aXz6HqptDVfeJXI/k8i5baW++RpF0UtInuTW67CtSeRKjA+ANwD4pE8XfJPGp++h2lZPrtUaHx9/kC1Fl8i5baW++WpXewFY5dbrsK1J5EqMT3KB4Q98uuCbND59D9W2iVzTN4PHcfxgkurJOW6kvvkK4N8BPN2x20Gbk8iVGJ44jp9gG8J9HpbqmzQlwlda0RquvKsnd7N6cm6boW++ArjeeuFuvQ7bmkSuxPjMzMzc0669APCXvtzwTRpffodsV8OVrdbExMRDAEjkHDdUn3y1PXJ2OLNjl4M3J5ErOUQAvgPgWF9u+CSNL59DtyuRa7WmpqZ2tfsQ1ZNz21p98tWu9SL5Gbceh29NIldyjEieTvK9vtzwSRpfPoduN1SRA3AVyY0FvW4geadEzm1r9clX25NLcsatx+Fbk8iVHCOSEwC+6MsNn6Tx5XPodkOdk4uiaIzk8oJeB5DUcKXjxuqTryRPi6LoWY5dDt6cRK7kECUnEHhbfOKTNCVDV1rxoYpckYD0er2H2rF06sm5Rd0nX0ne4NbbaliTyAUQJ5vbiOP4b3244pM0Pvytgs1QhyuLxG56eno3W8QgkXOLui++2uI2AF9w6201rEnkAogTyTMBfMCHK75I48PXqthUT272qh315Dw0WF98tbk4ALEHl4M3KZELIERRFP09gJ/4cMUXaXz4WhWbJnJN3wwOYHf15Ny3WF98tcPgba7WvcfhW5TIBRCj5ALKO0nu79odX6Rx7WeV7EnkWi2JnJ8W64Ovtt2D5NV+PA7fqkQukBiRvITkG12744M0rn2smj0NV2q40leb9cFXkv8I4HhfPoduVyIXSIQAdEh+3bU7Pkjj2seq2TORW3mcv1NqqoCHVlf6iZIPvpK8iOTj/HgcvlWJXCAxsmOS7BzLbre7j0uXfJDGpX9VtCWR03Clr3brmq+Tk5N72XycL3+rYFciF1CU7Mgd16efuCZNQHCV5oqJ3DFviw8szYEACtacnJ8guOYrgHc2dVVlP0ISuT4SAfwP4AiSt8RxvKMrd1yTxpVfVbZjInf08TygynXI67uGK/MiuHB+13y1Q7Rt4cnCpTXjqUQusDhbo4yi6GhXbrkmjSu/qmxHIqfhSl/t1yVfAbwKwFm+fK2KXYlcYJEC8FYAl7tyyyVpXPlUdTsmcq85LnpS1euRx38NV+ZBb3hel3y1hWxxHB80vLRmfCKRCyzOnU5nD7tjLo7jx7twzSVpXPhTBxvqyWkLga927IqvdiGzyx/LvupbhF2JXBEoZywDwDkkP5Qx24LJXZFmQeMNfWgi9+rjen/R0OrPVltzcn6i74qvAM6Iouh5frysllWJXIDxiuP40cl2ghV53XNFmrx+1Cm/RE5zcr7aswu+RlH05yS/6cvHqtmVyAUaMQAfAfDxvO65IE1eH+qWXyInkfPVpl3wleRnoyh6qi8fq2ZXIhdoxJKLL7eS+ZaquyBNoBCV5paJ3KuO6+1XmgMBFKyFJ36CkJevURQ9ualX6gyLiERuGDIBPLeN4SQvzuNKXtLkKbuueWd7csfjiXWtX5p6aU4uDUrZ0+TlK8lv2XBl9pLrm0MiF3Bsx8fHH0TydgDPHtXNvKQZtdw651NPTsOVvtp3Hr4mh0mc6cu3qtqVyAUeOQBvInnlqG7mIc2oZdY9X6giB+AqkhsLet1A8k7dDO62tefhq8W/1+vt6daj6luTyFUghgB+bKcXjOJqHtKMUl4T8pjIHXlc9wmh1TWKorFkLne57/+npqaeRPJmiZzbVjAqXwG8wcdVXW5rV441iVw5uGcqNY7jFwH4ZRzHD86UsdVqjUqarOU0Kb3m5DRc6au9j8LXXq/3KADXtNvte/nyq8p2JXIViR6A/yL5iazujkKarGU0LX2oPbki46DVlX7QHoGvO9jJJlEUHerHo+pblchVJIbdbncFgC0kX5zF5RFIk8V8I9OayB11fLNXsEnk/DT9rHwFMEXydD/e1MOqRK5CcYzjGHZLQa/Xe0Bat7OSJq3dJqeTyGm40lf7z8LXqampZQB+lOX7wJffIduVyIUcnQV8A3Bpll9uWUizQHF6tAACJnKveYebA7QXMF+JR+rJ+QlTFr6SvIzkX/vxpD5WJXIVi6X9eiO5Oe3euSykqRgUpbkrkdMtBL4aX1q+kpwA8H5fftTJrkSugtEEcCyAn6RZbZmWNBWEoTSXTeSOPKG3b2kOBFCwTjzxE4Q0fI3j+ECS/xPH8Y5+vKiXVYlcReNphzcD+MpS7qchzVI29Pm2CEjkNCe3bYtw99dSfLUfFzYPZzeVuCu13pYkchWNb6fT2dlOtgDwL4tVYSnSLJZXny2MwIrbVje+J6c5uYXbRt6ni/F1ZmbmHnaFThRFR+ctp0n5JXIVjrbdUGD3zgF45bBqLEaaYXn0fHEEJHLqyS3eQkb/dDG+kvxXkh8c3Xozc0rkKh53AC9L9s8dsFBVFiPNQun1bGkETOT+7q2dxy2dsr4p1JPzE9thfI3j+DUALrTenJ+S62tVIleD2JKcBnCT3VowvzrDSDM/nf5Oj4BETqsr07eWbCkX4muy0OSydrt9v2zWlNoQkMjVpB3YUAaAL86vzkKkmZ9Gf2dDwETuiLeOPzZbrnql1upKP/Gcz9fkpKNvGN5+Sqy/VYlcfWJsZ9hdSPI/Boc05pOmPtUtryYmcv9wQnef8jwov2SJnJ8YDPK10+nsYVsFoih6jJ/SmmFVIlejONtwBoD1AM7qV2uQNP1n+j8fArPDlSdM7J3PSrVza07OT/z6fLU9sCS/F8fxQX5Kao5ViVzNYj0xMfEQkv8L4N+san3S1KyapVZHw5Wak/PVAI2vK37dfqf14GxRma9ymmRXIlfDaNvwBsmfkXyPRM59gFfcunrr36knt7stdtKlqW7b1/LbVr350Es6NwKI3VpurjWJXE1jbxPWJG986mXjly7b1H5bv5oA3kxyg16jY3D0O6KtiHl1wzH8LsnfH31i9CfG8RUNx8IVn64YfxPueMpl4+v7fNX/+RGQyOXHMFgLURSNPec/O789+FtrvtR3cnJyci+S++s1Ogb7Xzu+dfz1eGHDMXymjRY88fo1vz92pndQw7FwxadLnv+p7vWDP0r7vNX/oyMgkRsdu0rk3Oenq0961kWdW0i+vhIOV8DJ2eHKd/YeFZqrAK6yo94Ket1A8k4NV7ppBSQ/TfISTS+4wXPQikRuEI0avjfS7H3z6lOSL767hi1rWNXCqhSqyFnPneTyIl7JBuWbJXL5mt3MzMy9AXzBBK7X691HIpcPz4VyS+QWQqVGz/qkSb74bEL7XTWqXilVMZE74u2dRp8Cry0E+ZveypUr70vyS3YRsgmcWezzNb91WegjIJHrI1HT/wdJYxeu2j10AN5X0+oWUq1Qe3KFVD4pRJvB86Gd3CJiN3t/dfC4rkG+5itBufsISOT6SNT0//mkieP4kbbq0o4Bq2mVvVfLRO6lbx9/pPeCAi5APbnRg7N27dr7A7jcenHWmxu0NJ+vg5/p/WgISORGw60yuRYizUCP7ozKVCQgRyVyrdb09PRu9mNJc3LZGqYdom4bvW0ObqGcC/F1oXR6lh4BiVx6rCqZchhp+kJH8uxWq7VDJStXktMSOd0nN0rTI7mLHdVlPThbcLKQjWF8XSitnqVDQCKXDqfKplqMNMliFFsKbkKnfykRMJF78dvXLE+ZvJbJNCeXLaxTU1O7AvgOgM/PH6IctLQYXwfT6X16BCRy6bGqZMqlSNPtdh9uZ12SPG/w9oJKVrYgp03kjjipu6Kg4oIsRiKXPiwJVlcDOH+pXEvxdan8+nx7BCRy22NSqydpSBPH8SNIXgfg3FpV3lNlZocr3zWxzJP5SpjVwpN0YbK5SwDfJ/mfRxxxxJ8tlSsNX5eyoc+3RUAity0etfsrLWmShQQ/tB5dGjLWDqgMFdJwpW4hSNNckvvgriP5iTTpLU1avqa1p3S6Gbz2bSALaRJS2sHD/1F7YHJU0ETuBe9oj+UwUfmsGq5cPIQkHwbg+sG7HRfPMfdpFr6msac0Ernat4GspLEvLwB2wvynaw/OiBWUyGl15WJNx4Zyk+H/zFt0svJ1MT/02RwCGq6seUsYhTTJUucNNlGuocvtG4hETiK3fauYezIgcLOXFg9LN+z5KHwdZkvP5xCQyNW8JYxKmkTo7HbiT9YcoszVk8hpTm6hRpOMgnw/z7F5o/J1IX/0bA4BiVzNW0Ie0vR6vQfY3h5tL9i2kZjIvejdnb22fdqsv7S6ctt4J/vgriF52rafZPsrD1+zldSc1BK5msc6L2kmJiYeQs7egv2xmkOVunqzPbmT1zwidYYaJtTCk7uDmvTg7C6/j979dLR3efk6Wqn1ziWRq3d8nSxJTn6lXms9Oh0B1mqZyL30lN6eNW86i1ZPPbk5eOwsSgDWg3PCDYncos1upA8lciPBVp1MrkiTLIm+FkDmFWPVQSudp+rJaU7OWkocxw9OhvOdHYvniq/pWnIzUknkah5nl6QZOL2h0Yc6S+S0ujK5TeDKvHNw879+XPJ1vu2m/i2Rq3nkXZMmmaPb0OTbCyRyzRa5AYFzfieja77W/OstVfUkcqlgqm4iH6QZuPTR2TBNlRA2kXvh+7oPD81nALb4YWNBL7u94s6m3Sc3MER5oo/4++CrDz+rZFMiV6VojeCrL9JMT0/vBGC96+GaEapYeJZQRS6KorHk+qTlvv+P4/hAkjc3SeQGenDv8dXofPHVl79VsCuRq0KUcvjokzS2Yct1adcAAAv4SURBVDyZeP9QDhcrl9VE7lnv/cfdK+e4Q4ebtoXAenAkryB5ikMYtzPlk6/bFdaQBxK5mgfaN2n6++gAjHSMURXhl8g1a3Vlf4gSwPt9t1fffPXtf4j2JXIhRsWhT0WQJrmm5wckP+jQ9WBNSeSaI3JJD87OcfUucNbgi+BrsMTy5JhEzhOwoZgtijRJj+57TZijM5F73qmdPUKJcRl+NGEzuB1rR9K2CThfRTksZkXxdVj5dXwukatjVAfqVCRp+rcXFPmlMFDVwt6qJ1f/LQSJwP0PSW+LTBZqsEXydaHy6/hMIlfHqA7UqWjSDGwvKOzX70B1C3krkav3cOW6deseSNJu4HhTIQ1qoJCi+TpQdG3fSuRqG9q5ipVBmk6nszOAb+S5ciTksJjIPef9a3YL2UffvtV1uHKgB/cW3xguZL8Mvi7kR52eSeTqFM0F6lIWafq/hose7lkAAuePTOSe+5HeQ50brpDBOoqc7f20HhzJk8oKRVl8Lau+RZQrkSsC5RLLKJM0ycq0qwG8q0QInBc9O1x5xsRDnBuukMG67ZNLfpR9k+R7ywxDmXwts94+y5bI+UQ3ANtlk6a/vQDAyQHA4cQFiVyrlcT1xjqceJJcDmyn95S+BaZsvjohSGBGJHKBBcS1OyGQZuD2gkJXqrnGsm/PRO6vP9jetf93E/+vy3Blf0VwKPPHIfC1bu1ZIle3iM6rTyiksX10AL5fh+0F6snVYwtBInC2t7O0Obh5dNVm8PmAOPhbIucAxJBNhCJyhtHAhvFKby+QyFVf5AbaYjACZxwJia8hf69l8U0ilwWtCqYNjTTJSe52TNKHKwjnrMsmcod8+NgHV9V/F35XeeFJMtR6DclStgkshn9ofF3M16p8JpGrSqRG9DNE0iTDRLZU+/QRq1VqNolcdReedDqdPZJh89eX2oiGFB4iX4e4WpnHErnKhGo0R0MlzcCmW7t4dYfRaldOLhO5p54z/qBySg+j1CouPDGBI3kdyekwUNzei1D5ur2n1XkikatOrEbyNGTS2N4kAJcD+MhIlSspk4nc/h9duUtJxQdRbNW2ENjwatKDmwwCwCFOhMzXIS4H/1giF3yI8jkYOmkGenSn5atpcbklctVaeJIInM3BsbhWMlpJofN1tFqVm0siVy7+3kuvAmmqJnQmck86t/1A78ELuICqDFdWSeAs3FXga8DNckHXJHILwlKfh1UhTZWELlSRA3AVyY0FvW4geWfIJ55UTeDsW6cqfK3SN6RErkrRGsHXKpEmmaNbX9QtzCPAOZvFRO7RZx/5gFHz+8oXRdEYyeUFvQ4geXOoImcCR/Jqkmt94e3DbpX46qP+PmxK5HygGpDNqpHGDnUG8B0ApwYE4zauhCpy2zjp+Y+Qhyv7Pbgoil7nGQbn5qvGV+cAeDAokfMAakgmq0iaZMO4/QoP8mQUE7nHnn/M/UOKc9G+hCpyU1NTuwKwRSYzRWPiorwq8tVFvX3akMj5RDcA21UlTf/XeIg9OhO51tbefQIIb2kuhLiFIGkzVwE4vjRgchZcVb7mrLbX7BI5r/CWb7zKpBm4vSCoHp2J3L5f6uxcfnTL8yC0ntzAj6I3l4dK/pKrzNf8tfdjQSLnB9dgrFadNAMH6QYjdCZyu1901E7BBLkER0ISub7AVWEf3FKhqjpfl6pfGZ9L5MpAvcAy60CaZI7Ozro8pUDohhal4cpWy4SFZOmXpiZ+2PztxNCAVeiDOvA1NLglcqFFxLE/dSHNwBFg73MMUWZzErkwTjzpCxyAVZmDGGiGuvA1JHglciFFw4MvdSKNbRgH8N9lr7qcFbmvH7Gjh3BVxmTZw5W21cT2wQF4dWVAS+FonfiaorqFJJHIFQJzeYXUjTTT09M7JUL3nrJQlciVe9VOfy8lyWPKagO+yq0bX33hlMWuRC4LWhVMW0fSdDqdnU3oAJxcRkg0XFnecGWdBc7ach35WgZHB8uUyA2iUcP3dSVNMnS5nmShPbqZmZl7zIrcxpX3rWFzSV2lMoYrkyHKK+vYg+sDX1e+9utXxv8SuTJQL7DMOpPGFqOQvALAOwqEtKWeXPHDlckK2yvqsopyWHutM1+H1dn3c4mcb4RLtl930iT76GwJ+YlFQS2RK3YLQXJU13cBdIuKcVnl1J2vZeAqkSsD9QLLbAJpSO5C8nsAvG8vmJmZuadErrg5uWRY9Jo6bRNYjP5N4Oti9ffxmUTOB6oB2WwKaRKh2wDg33zC32637yWRK6YnF8fxI0heV+c5uPlttSl8nV9vn39L5HyiG4DtJpEmETo7GeVDPqGXyPkXuampqWWJwB3lM5ah2W4SX4vCXiJXFNIlldM00vRXXQI4wwfkMzMz95bI+RW5OI4faUeGNakH12+rTeNrv94+/5fI+UQ3ANtNJE2y1NxWXZ7lIwQSOX9zcsmt5jc0UeCsrTaRrz44OmhTIjeIRg3fN5U0A6suz3QdVomcn56c9eAA/ITkuOuYVcVeU/nqMz4SOZ/oBmC7yaRJDvD9IcmzW63WDi7CEcfxjqGKHICrSG4s6GW9rTuXbW7/zsUFsjYHlwjcG13Eqao2msxXXzGTyPlCNhC7TSdNr9fbE8BNroQuZJGLomgsGe5b7vv/qampJ5G82YXIdbvdFckc3LsDoU1pbjSdrz6Al8j5QDUgmyJNq9Xtdvch+QuSp+UNTcgil7duWfLbBm0X98n15+DKOoc0S52LSCu+ukdZIuce06AsijRz4QDwWJL/l3d7gUTuLjx3tx5ynp4cyYeRtGHPfwqKNCU6I766B18i5x7ToCyKNHeHY3Jyci8APyL53rufZntnNyCEOieXrSb5Uue9GdzyA7gWQCefJ/XKLb66j6dEzj2mQVkUabYNx/T09G4Aric5s+0n6f6SyM3hlOcWguRg7avjOEY61JuTSnx1H2uJnHtMg7Io0mwfDlugAeDmUb5k165de3/15Ea/hcB+JJD8JoC3bx8ZPRFf3bcBiZx7TIOyKNIsHI44jp9A8pYoitYsnGLhpxK5OVxGGa5st9v3I/lVAO9fGF09FV/dtwGJnHtMg7Io0gwPRxRFTwLw6yyna9hQm3py2U88sQU7AC4t+pLb4dEP8xPx1X1cJHLuMQ3KokizeDh6vd6+yfaCYxZPOfepHQItkct24slAD+6f02Dc5DTiq/voS+TcYxqURZFm6XBMTk7uDeDnaXp0dkO1RC59T26gBzfSQp+lo1evFOKr+3hK5NxjGpRFkSZdOJIe3c9ILnq1i0RuDs80c3LT09M7kfwyyRPSRUGpxFf3bUAi5x7ToCyKNOnDAeCJJH8F4NhhuezgZ/Xklu7J2QIdAOtJnjQMSz3fHgHxdXtM8j6RyOVFMPD8Ik22ACWrLn817CR868FI5BYXObvqCMB3JHDZ2p6lFl+zY7ZUDoncUghV/HORJnsAJycn9yP5GwBvmp9bIjeHyLDhSjuqy04yGXWz/Xy8m/a3+Oo+4hI595gGZVGkGS0ccRw/HsAv539ZS+Tm8FxI5JLLaq8G8NrRUFcu8dV9G5DIucc0KIsizejhIPk42zA+eL5ip9PZQ8OV2w9XJqsoLyf5ttERV07x1X0bkMi5xzQoiyJNvnDEcXwQyc0AjjBL3W734RK5uX1yAH7av4WA5EUATs2HtnKLr+7bgETOPaZBWRRp8ocjiqInJ0OXL9VVO3N4JsOVW03kxqeiC3RdTv52ZhbEVzc4DlqRyA2iUcP3Io2boNr2AjsCzLYXLL+1/afW1t593FiuppXk0tSty29f/cfxddBJJo7CKL46AnLAjERuAIw6vhVp3EWV5CE2dLnittWNF7m7enK3t+9suuC7a2HqybnEsm8rSJHba8vqo8e2rDpKLwcYbF513timVecLSwdYbll11CGXj5+07Lb21hC/2AFcRXJjQS+70ftWG64UX920rVmOiq/uv/c3r/5DUHxdtql92tjm9pl6ucJg1YaxTe0rhacrPNtn7nPj6i+0ts7cs/9LMZT/V65ced+iX+Kru3Y1x1Hx1cd3VYh8DeV7o/J+7LH16IfuvnXNbpWviCogBBqAgPjqL8j/D26lIiBDJRAKAAAAAElFTkSuQmCC;" parent="1" vertex="1">
                    <mxGeometry x="7" y="180" width="221" height="112.76" as="geometry"/>
                </mxCell>
                <mxCell id="34" value="" style="shape=image;verticalLabelPosition=bottom;labelBackgroundColor=#ffffff;verticalAlign=top;aspect=fixed;imageAspect=0;image=data:image/png,iVBORw0KGgoAAAANSUhEUgAAAKIAAAEOCAYAAAAKW8w6AAAZCElEQVR4Ae3deXAc5Z3Gce1W/tjaquxWpSqVyia7VXvUZndrU0mWhQ2kfAQEJgZjfAhb1q2R5uru9317NJckS0iyZVmyHBvj2zI2Dg4QGwiOgcQQ1sGbEBxCOMxlg8HxJRmCL9mSdW79ZNoZBo1m+nhHo9Hjqq6RPD2vpr/9UfccrZ6cHPxDARRAARRAARRAARRAARRAARRAARRAARRAARRAARRAARRAARRAARRAARRAARRAARRAARRAARRAARRAARRAARRAARRAARRAARRAARRAARRAARRAARRAARRAARRAARRAARRAARRAARRAARRAARRAARRAARRAARRAARRAARRAARRAARRAARRAARRAARRAARRAARRAARRAARRAARRAARRAARRAARRAARRAARRAARRAARRAARRAARRAARRAARRAARRAARRAARRAARRAARRAARRAARRAARRAARRAARRAARRAARRAARRAARMFdF3/JyHEcKZMTPBjJu4+Zs2WAgRRDehd331oTft4T7kbWzczXZzIlrZYDhMFANFELMwqrwAgymuLkU0UAEQTsTCrvAKAKK8tRjZRABBNxMKs8goAory2GNlEAUA0EQuzyisAiPLaYmQTBQDRRCzMKq8AIMpri5FNFABEE7Ewq7wCgCivLUY2UQAQTcTCrPIKAKK8thjZRAFANBELs8orAIjy2mJkEwUA0UQszCqvACDKa4uRTRQARBOxMKu8AoAory1GNlEAEE3EwqzyCgCivLYY2UQBQDQRC7PKKwCI8tpiZBMFANFELMwqrwAgymub0SOHw+EvMsZu4ZwXc85DjLGVnPMfc85/yRh/inO+TdO0ZiFEKef8erfb/dcyFygdEGfe3/KjBcvqnyu6t+ZgaX31a66a8DvuaPgDTyR44uoUOu6qjbxV2FDzItPFmdLS0r+SucyTduxAIPD3bLFnGQv736KTHWlR30mlzvWud0nR6+7lC152r5p7wLX+zl+41s98pmLV3fvdyxce8C8p+p1aU3mEB9U/8ZDyAQv5dhJOXde/5uQkhLiRBfSPbulYudGpafaahr2lS4PveGv0T7guBtWg6K1cLM6WNPGuwhZ+YsFK9sE9K9lRuly0nB0raObHiprEcVeN6GSc9wtdXOBcvCaEaKVfxkkLx6kF9626R9Fq3a/zALui1JcfVXT/eR9TLvmY0m1q0pRLKmdXGGcDQohBrvNuzvlpIcQJB6ZOLsSgGtAv2plYlX6Z6aKPcT7EhBhUGBvwaWzAy3ifR2MpTV6V9/v8bLBo93e3Fe2cusmzbNFjrEo7zDk/zJiocGq9TJpxvD+6vYFVe09qNe5O1+aZe/Of/Y81xQ9N3ekNeD6ir+1MRY/e+KCnPe9FFvGd5g2Ve1VV/Uc7Ye3umudviO731Yjzvii7dM9K7YPbO9RXZzygvmJlunOdcsjvZ4PFD05/JLZR0Y5pm9Taihc//eUL08MbO8uc9bct+/U3y7QG13ss6vu4fPOMn8XGdApi7Jjlm27fy6o9nWpTyZOapn3ZSmCrEBesDv1OCfOeysXs3PzV2hEr8OJvkwiisczFj9y0RamuPMg5P8M5n2plebP6NgXDOd/0b5jzUx7QeunxnhEu9lIGRGP8ynV3PstCyjm1raDVbGizEO/eUL1PDYvLFXXs7N1rtXfiMdn5PhlEY3ld62f9hAl2VghRZ3Z5s3b+0sNfX6Q2lh9Rq92ni3b/zzYjVvylTIj0s4p3f3e7Vus5rUV9H+q6/i+pBk8V4vc7Vq6vaNBPVdayc7PXKo4CNPCmCpGWd9FPr9ugRXxHGeM/m9S76rzhnC+7Xv63II8o570t+a/Ew4v/XjZE4+d5ly/6PQtoPdrykuJUMKYCMa998bP0zHdhm3bMQCPj0gxEY3mVe8t+z6u0lyflSz6EsPw332xhVWqPe83s540oY12mCyLdB3p8yqu0Hm1pyZZkGJNBLFkSessf4d2zNqhvysAXO6YViLS8/rrywyzo/2myZR2X6ymw7BOUa4oYVnyZOal+McwYH+acj3midsb5ydHOoT1928q17upAp6uBfxSLRebXViESRqXO9b5WV7l4XLCN9UOT/aZbPXH5nQ+z37Iq0Z+3ir1vZqXMXqO+XcFZj5nb2J2XXkqpXMzOeqv1MwQrfpnp5OmaEJ3xEG/d2NqhBMWl4qXslN37YOb2diAWPvHfHTyoXhRCfHssF2m/TgbEmY/q+7Ug789bqR41E5jmHQ+Ixn0sbeRdSjhwNh7jaBBv3tK+QQ3q3Yva2IfG7dN1aQfiyEMSejkr4u+U/baoKcxOQ7zt8fDPlDDvXdiuWVpB4wmRIJU28S5vJPDRlG2r1hhbxniI0zra1ykh/Xx+G/8gXfhif45diITRt6ToLWVF/m5TWGTO7CTEKbsaH/DW8gvFS7TTseHMfD3eEGdsVV9x1fOPvJGq09/bvnoVYYyFOHX7D+/zhQJ/KlrK/2hmuZyc1wmIhXuu28KCyqWKPVNvlukr5bGdhFjayo/RC7gUfX6bevSeFu2Y2amgkZ1ya6zP7O2cnt8b5hfpiJe8toZnFjXX7WdCnGe6fsEbqupyR8U5p3+emfEWNqknfT42VNF8z0uu++7aZ3XyNRa/pdW4/6jrekn8JIS4O2VETszoFMS7OoK/UkPiyswO7TWCWFivdZXUsI/NTmURds6rsAGzt3N6/rIa/iemi35PJHTcGwkdF0JcYUL0aQH9itM/y+x4pRF21u/jQ+7q8qOVdcVv25m0gNrD6itfEkJsj5045y1O+Ep5DCcg0u5KDfHeuavVw3Z3QeO+a445EGH2Wu1NTed9gYDeU8X5IGNsaNZG9ZDdZbR7eyd2zfQ4kSbX+jueUZcWv5EyGFkzOgGxuK3qbXqQbzcw3T6TIM77oXpE1fhAUPBLYcYGmZ8Nz21X33NiOe2M4SREwshCynk6EEWWsZTGtQvx5o0rNmtVov+OzerrduIat80UiITQr7D+6qi7MxxgFyKqNri0wtPvV1jfeGN0GqJn1bz/87cv/HVKYGTNZBeiqyFwzM6zZAOgcZkJEAmagbC2tvLE4khF57JKT3+Ly90fjbpPjzdGpyEW7vmvTXREVGHXl26V5SzpuHYg3rKpbQsd4v6DLcrIExQDk53L8YZICJVPt4SEkKa6iOt0q6uyjyDS9+ON0WmItHv2Nxa/6344d1NSMLJmsAOxtCFyqKSBOfoe63hCHA3haBDHG6MMiOUdM57UmsreowNVZFkbc1yrEKduX30f08XgXRs0R482GS+IiRAmghiLcX67aur9dDt7DLqtDIgjT1qCSnfZkX+YPyYYWVdahTh3ReMeX5RftBs1/vbjAXEshGNBNDAqKutPJ0ZZEP1Liw55Hs3dIMvamONahVhRG327cIl2Mh6S3e/TDTEZwmQQxwOjLIiu9TOf9rcvPDgmGFlXWoXIqvQrc9Zpb9uFF3/7dEJMBWEqENONURbEwj3f3kRH0tPfFsnylnBcKxDp2TLT+UA8Iie+TxfEVBGmCjGdGGVBpMeJWrX7TPHBbxQmBCPrCisQ6fGhO8JHDm5wAl/sGOmAaAahGYjpwigToq+p8E3vI7npfZ+ZcFuBWNhY+2JJI5dyVLJsiGYRmoWYDowyIdKf+frXz90ja8OXcFwrEF2Lo4cKWoSlA19jt36jfS0TohWEViDKxigTYvkDtz6uLilJ/0EQViBWRkLH8trN/xnAaPDi/08WRKsIrUKUiVEmxMJdN2zXqj1dCbdcsq6wAtEfqvp4zhr13XhETnwvA+K8dvX9+LftCEqqU/xbfKneThZGmRDpCQsPaj2yvCUc1xLEqsA5p0+jYSB2GuIIQvXqUTRmAMXOaweiDIyyIbKg0p32P6yyBDGkX5gIEJ1ASJDsQozFmNdq/yGNbIharfu0a991eQm3XjKusAJRCYqLmQ7RKYROQTQw0uFldjHKhqjWuf5YsWtaeg+UtQLRF9bPzb1Ps/1nAcbuOPbSiV2zkwidhGhgpMerdjBKh9hQ9p57Z65PxoYv4ZhWIHpqA133rNRM//F8LLhEX9uF6DRCpyHSeHTUtx2MsiEqTcVv+7bdIRKikXGFFYiu+sCHi5ZrxxNhsvP/diDKQCgDol2MsiH6m4ve8HfcFZbhLeGYViAWLwkdknW+F6sQZSGUBdEORukQm4reUtbOK0+IRsYVViDmN9c/X1HHPrGz5Ut0WysQZSKUCdEqRukQG0sPCyGmy/CWcEwrEO9a1fyoLyznjF1mIcpGKBuiFYyyISoN5e/run5DQjQyrrACcerWlWvpnIozOhTLZ8Z3YouYDoTpgGgWo2yIal3FMSHEv8vwlnBMKxDpxERqSPTKeC0x1S3i/Fb1KB2iT89AaUXKnJx4QTuV+5fqs2nZEFnY/3EkEvnbhGhkXGEVoquJdxa0OP/MORWIhDD2745TWcl25kkXRLqPBkZaxkR7DekQAxPkvWbaIubfF3i9ok5z/AlLMojpRkg40gnRwEi/aIkwyoRY+Nh1HSzsOyVjozfmmLRFtHoObTrvtIxzY/u9Ccb18mHNy4eXlXmH27J8omWkZVUStPD5tMGC3TdspaNlnJxKHrx5F6t1/2FMNJl0Jf2BDQ9oV4p/ctMOJ0OUbbr9yVFxTyKExi/ZWBi9zH/Rye7GWO775uzXmkq3ZZK1pPdFbS16I9EnSBkLZvaSINJJKGMfH43H7tjOY0onb2s8Zsxbrl07TTLtmj1M6TbbNpX5fc1FbzDGFiZd+Zk0g/vHuVuV2ooTqSxgqvPEQ5zMCA3Q8RhlQtSi3pOBQOBfM8lZ0vtSeuyrRfT4kj4yIVVoyeaLhQiEf35ZKhajLIgFT31rAwuo55Ou+EybgR4nag3lH1SsueuXyYCler0BEQj/jDB+y7iwST0uY9fs2nLbHrW6cl+mOUvp/ngf/MGTar3rw1ShJZtvBKKXDaXzdUJjRU+Ey6tbRt7vVZXeZC3NXu9rWfSyECK9BzukpCyFmcqOfdVDu+fix69/wOyCjzZ/RfOCg5qXDVPwiQBjPO5jTbjyjOplQ+Vr7vj5aA2t/h+L+E7puv61FFZ75s1SMJxzvdJSdMi9as6on79sJkrZ2tufUhW1d1mZd2g8VvBE+Zn0Anuzy92nKEqPUxiLdt34IA8rRzJPmIl75H7qexvVaneXGXTx81JQVVUutwQXvNNW5gHEMd4/J4jLXRVXltXPeskpjO7WvAOc8yoTqz3zZl00nDObh9TukkemPBQPLJXvCSEFpbArQvPeAMTPP1GJ3VobEFc0znjBKYws7D+tqurfZZ4uE/dowXDOP/s3zX7O11LwairwYuf5DMLGGS8A4tgICWQsxFiMrtWz9sW2TfXrkp1THmZh9SUTqzxzZy0++hWN3vIr2PudjakG+BxCQEzpcLZ4iHYxKg1lr6b9I89kUaYnLWbe8hsVISBahmgVY9HjN2xlQfVkTk7OX8iykfZxXb+4fgV9ilGyLWJChIBoC6IVjP5lBb/hnFemHYvMH7hoOCeX1XjPuDbNfDoRxjERAqJtiGYwXt0a+tN/7KFMhMbY3kdyd7Jq75nRICZFCIiOQEwVo7+x+BDnvNhYd1l1WdD7hdtYxH+2fGvuE7EYU0IIiI5BTIaxZOe0h1nYd6yhoeEvswpg7MJ4H5qxI/b955QRAqKjEMfCqEU9xznn4/fZe7FgZH1dduGLN/GwcqHsoemPmEIIiI5DHA1j5ao5L2i1lc/LWv8ZNa5328wdatTTde0dE0KWyoR3VpJiHO11xGRtjXdgKlvnHmBB5Rzn/CsZBUbWnVFa80NC8MG6yKL3kkX6zPWAKAUiNSaMnLEBVuPZJWu9Z9y4OucuXVcvBXS1t6V+1sHPYBtrywiI0iDWhMuOC8H6aN1kHBiZd2gEY0DtCejK5eX3znwxJYyAKAVifXThu5yzQaFp6T0Bp0xgZsZWVi+o1wNaX7BK6W5tmPnrpBgB0XGIS2rnvcY5G9Jaiu83s+6ybl7/9jvuF7rWH6ryngPE5EfXxB7yNdrXZp6sNC+e/TLnfFBtz38y62BZWSDvw7k7hOADkaD7ozExYovo2BZx5MkJZwNqW8FvrayzrLwNHbPo/fGtu+iZdHWo/GRCjIDoCERCyJjWpzaWvkvtsxKV1YVaOJwzxbfjtj30eGVxuOjoqBgB0TZEQqhpah99lFl+/xemWV1fWX27guGc+b4HfvA053yInsl9DiMg2oJ4FaF2hYX9Z0s++ZuCrMZkd+Hyh3M8/s2z9hHGxuq8Q5/BCIiWIY4gVNVeHlYuFp76UsDuesr62+cN53x50XAO96+b8yvCuKR23h+uYQRESxCNLSEPqt0lR77eSI2zHpITC0inKykYzqnyr857kR4zLlk895URjIBoGiIhVFW1l1WpPWUvf2MFtXViHU2aMeiIbsKotue/QlvGpYQREE1BjEVY8cK311PTSQPIyQWlv4kmjFpL0Zv00k5zMP8w/q557Be9jRe0YxBedu+Z8iNq6eS6mXRjFQ7n5I9sGRtLjtD7oc3lPpzpIcmZHj495UgvC6qXPA/nPkYNJx0cGQtsYOS1ni7OOE7CNAZEOgmT4mFDLKh2e7fe+XMgdFgkvaxT8dwNW+jxosbYUDTi7hrtvdbJ/H90ljS/XxtgnA/6184/QM0cXg0Yjl5yqHz6xvu5zge9tewiYcTp6f78eHEEocL6lSDvZQGtlxDiZRpJvzdaS0k+Qfz+s/793lp+gX7zgfHqBwHRyUv9Id5TvkQ7o0WUs0AoCSENGwgEZjLOB6bvY/u+/0v/fg8wjnwa1QjCMO8pa2adMx7TDmgBdlriasDQBJEL0X/To63rrmGs4RcYm5xbRtob0Kfd+8Osp3wpO0NNcrcu2cF0cQJaJBYwINLHrMVipN0052JS7aYNhL4QIdS6CCE1yd3YuhkQJSKkoWMhfh4juzhZMF5DOLIl5NcQUhNAlIxwNIifwUhPYGrYxWzfTV9DGOKXR3bHv7i6JaQWgJgGhIkgGitg+s/1vfQEZgRjlj6bvoYwzC+XL2OdtMzG8huX2CKmAWP8rtmIb1yOYHzWv99Xzbuzbct4DSFtCQnhM59HSB0AMQMg0orIRowGQm+EXRoLISCmAWGyXbOxVbyGkXbTUXZJ0yb2SzuxCEuXs1Oj7Y5jlx1bxDRgTLZrjl0h0/ZGdtE7MP5q3j1RMRoIfWF2iRDSMsUu42hfA2KGQaSVFItR1diEep3xGsIQv5wqQlpmQMxAiAbGm59Tnh/ZMk6Qd2AMhPSOSXEbO57KltDYOgJihkKkFTTliYbttzyr/q8vyi5l+pbRQEhH0ZQsZyfovhvIUrkExAyGaGAc2TJG2OVMxRiD8EpJGztuFiEtJyBmOERaScb705n4BIYQqirvV6t4X/EK8SHd11S2gPHzAOIEgBiL0VPDL2gZ8pjx0y3hgBbg/YXt7KhVhLR8gDhBIBpbEHo9LhPem76KUBvQdD5QsEq8Y9w/q5eAOMEg0oqmt8l81ezSeL0deG1LqPPBBWv4m1bxxd4OECcgRFqB054KP+av5mnHGI26TyvK1S3hgtVVr8RisvM1IE5QiLTSp++J7Panccs4glBlA0zng3nrggftwIu/LSBOYIi0Mqc9sXgnPZuWvZs2EHJdDM5dE90fD8nu94A4wSESAHrdzh+V95jRQEhbwvn3VzuOkJYBELMAIq3IqY/f+6A/6vyW8SpCbYDpYvDutQ177G75Et0eELMEIq1geh3PW8vPO/U6IyGkd3PoJZo7NzTuToTIif8HxCyCaGD01LBzms2jdgghjcECov/2DW3bnMA21hiAmGUQjZXtreWfaMzaIWQjCBkf1AK8L3fzis3GmDIvATFLIRIaT5342OyfqhJCegZOCG/e0r5BJr7YsQExiyHSiq5o4GdSPfHTpwgHtKC4Mq1jxfpYKLK/BsQsh0iAXPX8TLLXGaur3adoHjUoLk/ftnKtbHjx4wPiJIA4grGRd9Ln19H7xPHnYoxG3Z2MsSElLLrjgaTre0CcJBAJVEWT6IzfMkajHvq/IV+NOJsudKP9HECcRBAJQGWD3kVPYKIRT9fVLSEfoic1o+FI5/8B4iSDSC96VzTRY0Y2RKdTrqjnnekEl+hnAWKaIAohhjNp0jPs/lAbJvixNKyOyfsjAoHAt4QQr07eAljyjCgAiBmxGnAnABEGMqIAIGbEasCdAEQYyIgCgJgRqwF3AhBhICMKAGJGrAbcCUCEgYwoAIgZsRpwJwARBjKiACBmxGrAnQBEGMiIAoyx/+ScH8iIO4M7gQIogAIogAIogAIogAIogAIogAIogAIogAIogAIogAIogAIogAIogAIogAIogAIogAIogAIogAIogAIogAIogAIogAIogAIogAIogAIogAIogAIogAIogAIogAIogAIogAIogAIogAIogAIogAIogAIogAIogAIogAIogAIogAIogAIogAIogAIogAIogAIogAIogAIogAIogAIogAIogAIogAIogAIogAIogAIogAIogAIogAIogAKZWOD/Ac1u5SCCfI//AAAAAElFTkSuQmCC;" parent="1" vertex="1">
                    <mxGeometry x="28" y="292.76" width="232" height="386.67" as="geometry"/>
                </mxCell>
                <mxCell id="39" value="" style="group" vertex="1" connectable="0" parent="1">
                    <mxGeometry x="296" y="424.8954531978262" width="228.6045468021738" height="254.53454680217385" as="geometry"/>
                </mxCell>
                <mxCell id="36" value="" style="shape=image;verticalLabelPosition=bottom;labelBackgroundColor=#ffffff;verticalAlign=top;aspect=fixed;imageAspect=0;image=data:image/png,iVBORw0KGgoAAAANSUhEUgAAAcAAAAH2CAYAAADnBlzDAAAgAElEQVR4Ae2dCZgtRXn+h8Ql0SgooOICahQXcMENlxgXFLe4Xb0iCApqRu7MdL1vnRnuBREZNWIwaogYNQsqCKKC218UEMGVTcUNXGKM4q4g4Ja4RfN/vkufe8+cOUt3n+6u6u6X5+E551RXfd9Xvzrffed0dVXNzem/KAgkSbIryYc55w4jeRTJ40m+keQpJN9H8jwAl5C8guSVJK8h+dv0f3tvZVcAuNjqpm2srdk43jl3pNl2zj10eXl5lyg6rSBEIBICyr9IBkJhtJfAysrKTZMk2QfAASSPIXkqgM+Q/BnJnwD4FMmTvPcvIbmZ5CaSh5B8mvf+MQD29d7vtby8vIf3/parq6s3sv/tfVq2V5IkD7a61iZtazbM1tFmm+SnAVxF8jqSlwJ4O4CXeO+fRfK+8/PzN2nvCKhnXSag/Ovy6KvvtRMwsSK5COBMkh8H8EuSlwE4HcDLABzkvX9AkiQ3rzu4LVu27AjggSSfQ/LlAN4J4PMkfwXgApJnAFhIkuSedccmfyJQBgHlXxkUZUMEMhIYTDgAPwVwOYATSW6wWywZzQSvZrECeAbJN6S3XK+WIAYfFgUwhYDybwogXRaBMgksLi7u2f+FNyx4dluyTF8hbS0uLu48ThAXFhbuEjI2+e4uAeUfFpR/3f3+B+m5PUBCkgA+l/4q2voLr02CNw3soCCmt3c/C8BZ+bS2ui4CsxBQ/s3NKf9m+QapbRECO6QPlJxrD5AAeB3J+xUx1MY2zrn7kzyB5NUAzrF5xTb2U30KRkD5NwG98m8CHF0qTsA590SS7yD5BwAnA3hscWvdaOm93z99svSPAE5zzj2+Gz1XL8smoPzLT1T5l5+ZWgwQcM7t7pw7Nl0mcJZz7tkDl/U2BwGSB5L8MIBrAbw0SZLb52iuqh0koPwrb9CVf+WxbL0l7/290l97VwJ4ri0TaH2na+ogyZ1IHkryu/ar0J7Wq8m13DSEgPKvuoFS/lXHtvGWbfcVAB8C8CX92qt+OO2v0nR5yAdJPqR6j/IQMwHlX72jo/yrl3e03kg+wXZeSXdfeUK0gbY0MJJPAnAhgE8AeFxLu6lujSGg/BsDpqZi5V9NoGNzY9uQ2a89+9Vnf33GFl/X4vHePxzA2SS/AGBj1/rftf4q/+IaceVfXONRWTT2KwPAe20bMptvqMyRDBci0Ov17kPyXbau0PYyLWREjaIloPyLdmi2Bqb8i3t8CkdnC2dT4Tt7YWHhDoUNqWEtBObn53cH8JFUCFuzm04t8CJ0ovyLcFAmhKT8mwCnaZfsBIT05IOnNS32rsdr+6fa9nJ2jFObWZA8tq39U/41d2S7kn/NHaEJkdvi6/SR+1dMqKZLDSBA8jg769AW+DYg3Nwhkvy/3I0ib6D8i3yAcoTX9vzLgSL+qumhlu+3xddadB3/eGWN0BZHp1usvadt+422SQCVf1m/0c2q1+b8a9ZITIg2PUXdDpV9yoRqutRgAs65p9t+o865zQ3uxprQ2yKAyr81w9rKD23Mv8YP1KZNm25B8ot2qnnjO6MOZCLgnDvGDhYOcZBwpgBzVGq6ACr/cgx2S6q2Kf8aPSQkn0nyGgD3bnRHFHxuAkmS7EPyZ/ZXae7GETVosgAq/yL6ItUcSlvyr2Zs5bkD8CYA7y7Poiw1kQDJ99jJ9U2M3WJuqgAq/5r6jSs37qbnX7k0arDmvb8dyf8A8KIa3MlFAwgAWCD51YWFhds0INw1ITZNAJV/a4ZPH+bm5pqcf40aQDuUFsD3nHN3bVTgCrZyAktLS3cn+UMAB1XurEQHTRJA5V+JA98yU03Nv8YMQ3og7cmNCViBBiFA8lQAbwnivIDTpgig8q/A4HawSdPyL/ohWl1dvQHJ8+2vz+iDVYBRELCzB207tSiCmRJE7AKo/JsygLq8jkCT8m9d8DEV2HwDgN8BuHVMcSmW+AmQ3A3AH2OfF4xZAJV/8X/PY42wKfkXKz97Ou5+Nt8XbYAKrBEEbF7QdrqPNdhYBVD5F+s3pllxxZ5/UdJ0zj0RwOeiDE5BNY6AnTUY616iMQqg8q9xX/GoA445/6ID55w7jORZ0QWmgBpNIN1LNLp55NgEUPnX6K95tMHHmn9RAbOjb0ieFFVQCqY1BOxJRpIrMXUoJgFU/sX0zWhfLDHmXzSUSZ5gR29EE5ACaSUBAK8m+dpYOheLACr/YvlGtDuO2PIvCtr2DxIAF0UwCqL1BAB4AK+KoaMxCKDyL4ZvQndiiCn/glNPk08nOQQfiW4F4Jw71v4aDd3r0AKo/Av9Deim/1jyLyh9u+2iX35Bh6DTzkn2ALwmJISQAqj8Czny8h1D/gUbhXTCXXN+wUZAjo1AOicR7MGYUAKo/NP3PwYCofMvCIP0UWs97RmEvpwOE0ifTguyRCKEACr/hr8B+hySQMj8q73ftshW6/xqxy6HUwjYOqUQi+XrFkDl35Qvgi4HIRAq/2rtbLq9knZ4qZW6nGUlQPKLAO6dtX4Z9eoUQOVfGSMmG1URCJF/VfVlnd10Y13t7bmOjApiIgDgR3Vuvl6XACr/YvqWKZZxBOrOv3FxlFpuR6rYqQ6lGpUxEaiIgJ0iUZHpdWbrEEDl3zrsKoiYQJ35VwsGAOfX+Vd1LZ2Sk9YSsF9LJGs5T7AOAVT+tfar2sqO1Zl/lQPs1BM+ldOUg7oI1PWkZNUCqPyr6xsjP2USqCv/yox5nS07xd0ScN0FFYhAAwgAOI3kgVWGWqUAKv+qHDnZrppAHflXWR806V4ZWhmukUDVk/JVCaDyr8YviVxVRqDq/KsscJL/4Zy7a2UOZFgEaiBA8h4AvlKVq6oEUPlX1YjJbp0Eqs6/SvoC4E0AXlSJcRkVgZoJkFwEcGIVbqsQQOVfFSMlm6EIVJl/pfeJ5DMBvLt0wzIoAgEJAHgvyaeVHULZAqj8K3uEZC8GAlXlX6l927Rp0y1IXlOqURkTgUgIAPj55s2bb1ZmOGUKoPKvzJGRrdgIVJF/pfax1VvZlEpKxppIoIqtxMoUQOVfE79VijkrgSryL6vvqfVIHgVAB9tOJaUKTSZAchXAEWX1oSwBVP6VNSKyEzOBsvOvlL4mSbIryZ+UYkxGRCByAnab3243lhFmGQKo/CtjJGSjKQTKzL9S+kzy/QCeUooxGRGByAmQ3ADgzDLCLEMAlX9ljIRsNIVAmfk3c5+dc48n+eGZDcmACDSIAICPeO8fM2vIswqg8m/WEVD7JhIoK/9m7jvJ7yZJcvuZDcmACDSIAMk7AvjWrCHPKoDKv1lHQO2bSKCs/Jup7ySPBvCKmYyosQg0lACAVwHYMkv4swig8m8W8mrbdAJl5F9hBsvLy7sAuKqwATUUgRYQAHAtyZ2KdqWoACr/ihJXuzYRmDX/CrNoxMr8wr1TQxHIRmDWnVeKCqDyL9v4qFa7Ccyaf4XoAHgcgLMLNVYjEWgZAZLnOef2K9KtIgKo/CtCWm3aSmCW/CvExP76XFhYuEOhxmokAi0jsLy8vAfJM4p0q6AAKv+KwFabVhKYJf9yAwFwAIDTczdUAxFoMQETQADPyNvFvAKo/MtLWPW7QKBo/uVmA+BL3vt75W6oBiLQYgJJkuxD8rK8XSwggMq/vJBVv/UEiuZfLjAknwDgQ7kaqbIIdIQAyXMBPDZPd/MIoPIvD1nV7RqBIvmXixGAT5F8WK5GqiwCHSHgvX8EyY/l6W4eAVT+5SGrul0jUCT/MjMy4bMEzNxAFUWggwQAXAxg36xdzyqAyr+sRFWvywTy5l9mVnbr027BZG6giiLQQQLe+ycD+EDWrmcVQOVfVqKq12UCefMvEyt76MUefslUWZVEoOMEAHyF5D2yYMgigMq/LCRVRwSuJ5An/zIxI/kO59yzM1VWJRHoOAEAB5M8JQuGLAKo/MtCUnVE4HoCefJvKjPn3O4kr5xaURVEQAS2ESD5/aWlpdtuKxjzZpoAKv/GgFOxCEwgkDX/Jpi4/pJz7lgAz51aURVEQAS2ESD5fJLHbCsY8yaDACr/xrBTsQiMI5A1/8a131ZO8rotW7bsuK1Ab0RABKYSWFxc3Jnk1dMqThNA5d80grouAusJZM2/9S0HSpxzTyR51kCR3oqACGQkAOAc7/3+k6pPEkDl3yRyuiYCkwlkyb+JFjT5PhGPLorARAJZJuMnCaDybyJeXRSBiQSy5N8kAzuQ/MOkCromAiIwmQCAP06qMUEAlX+TwOmaCGQgMC3/xpogeQiAk8dW0AUREIGpBACcRvLAcRXHCaDybxwxlYtAdgLT8m+spco3Fh3rWRdEoD0Epm1gPUEAc2+s3R5q6okIlENgWv6N9LK8vLwLgKtGXlShCIhALgIAriW506hGowRQ+TeKlMpEoBiBSfk30iJJAnjdyIsqFAERyEWA5OsBLI1qNEoAlX+jSKlMBIoRmJR/Iy0C+BzJ+428qEIREIFcBLz3DwJwyahGowRQ+TeKlMpEoBiBSfm3zmKv19vTjpdfd0EFIiAChQkAeM/S0tKdhg0MC6Dyb5iQPovA7ATG5d86yyQXAZy47oIKREAEChMA8CYALxo2MCyAyr9hQvosArMTGJd/6ywDOJPkhnUXVCACIlCYgPf+WQDeOWxgWACVf8OE9FkEZicwLv/WWQbwU+/9LdddUIEIiEBhAisrK7cC8ONhAyMEUPk3DEmfRWBGAuPyb41Z7/1eAC5fU6gPIiACpRAA8DUAdxs0NiiAyr9BMnovAuUSGJV/azxo/mENDn0QgVIJjJqHGBRA5V+puGVMBNYQGJV/wxU0/7eGiD6IQHkERs1DDAqg5v/KYy1LIjBMYFT+ramj+b81OPRBBEolMGoeYkgANf9XKnEZE4HtBEbl37armn/YhkJvRKAyAsPzEH0BVP5VhlyGRWAbgeH823ZB8w/bUOiNCFRGYHgeoi+Ayr/KkMuwCGwjMJx/gxc0/7eNht6IQDUEhuch+gKo+b9qeMuqCAwSGM6/bddIfjxJkl23FeiNCIhA6QRI7gbggr7hvgAq//pE9CoC1REYzr+tnlZWVm4K4JfVuZVlERCBPgEAv06S5Mb22QRQ+dcno1cRqJ7AYP5t9ZYkyT4kL6vetTyIgAgA+JL3/l5GwgRQ+afvhAjUR2Aw/7Z6BXAAgNPrC0GeRKC7BOy0FQDPMAImgMq/7n4X1PP6CQzm31bvJI8B8LL6Q5FHEegeAQCvJHmU9dwEUPnXve+AehyOwGD+bY2C5KkADgoXkjyLQHcIAHguybdZj1MBVP51Z/jV08AEBvNvaygAPuO9f0DguOReBDpBIEmSB5O8yDqb3gJV/nVi5NXJGAgM5t/WeEj+LEmSm8cQnGIQgbYTsOPGbNtB62f6C1D51/ZBV/+iITCYf3O29o/kT6KJToGIQAcIkLxm06ZNt0gFUPnXgTFXF+Mh0M8/+wv0YQA+FU9oikQE2k8AwMUA9k1vgSr/2j/k6mFEBPr5N+ecO4zkSRHFplBEoPUEAJxM8pD0F6Dyr/Ujrg7GRKCffyaARwF4SUzBKRYRaDsBkseSXDEBdM4d3fb+qn8iEBOBXq+3CuAIuwV6PMnNMQWnWESg7QScc0eSPC69BXpE2/ur/olATARsHa7lnwngG0luiik4xSICbSfQP/4o/QV4eNv7q/6JQEwEACwBONEE8BSbi4gpOMUiAm0n4L1/Hsm3pr8AD257f9U/EYiJAMlDLf9MAN9H8mkxBadYRKDtBEhuSM8A/D/v/VPb3l/1TwRiImB78Vr+mQCe571/TEzBKRYRaDsBAI8leW56C3S/tvdX/ROBmAh47/e3/JsDcImtR4opOMUiAm0n0N+OyQTQe/+gtvdX/ROBmAiQfMjW7QhJXuG93yum4BSLCLSdgOUcgMtNAJMkuWfb+6v+iUBMBJxze1v+2S3QK5eXl/eIKTjFIgJtJ2A5R/Lb6S3Q3dveX/VPBGIiQPKOln8mgNfY5qAxBadYRKDtBPob8poA2p6gbe+v+icCMRFYXFzceeuG9CR/u7q6eqOYglMsItB2AvPz8ze03DMBtPdt76/6JwIxETDNs/yzX4ASwJhGRrF0goAEsBPDrE5GSmBQAHULNNJBUljtJaBboO0dW/UsfgKDt0D1EEz846UIW0ZAD8G0bEDVnUYRGHwIRssgGjV0CrYNBLQMog2jqD40lcC2ZRB2MKAtym1qRxS3CDSRwOBCeG1E0cQRVMxNJjC4EF5boTV5JBV7IwloK7RGDpuCbgmBbVuhaTPsloyoutEoAtoMu1HDpWBbRmBwM2wdh9SywVV34ieg45DiHyNF2F4Cg8ch6UDc9o6zehYpAR2IG+nAKKxOEBg8EPd4kps70Wt1UgQiIeCcO5LkcbYTDIAjIglLYYhAJwiQPMryby5NxKM70Wt1UgQiIQDgpQCWUwF8cSRhKQwR6AQBkseSXDEBPIzkSZ3otTopApEQAHAyyUNMAJV/kQyKwugMgX7+mQA+lOSnO9NzdVQEIiBgB1HbQbipACr/IhgThdAdAv38m1teXt4FwFXd6bp6KgLhCQC4luRO6S1Q5V/4IVEEHSLQz7+tXSZ53ZYtW3bsUP/VVREIRsA24iV5tQWQ/gJU/gUbDTnuGoHB/Nvad5KXAnhg10CovyIQgoBtwwTgQvOdCqDyL8RAyGcnCQzm31YAAN5O8jmdpKFOi0DNBPqL4M1tegtU+VfzGMhddwkM5t9WCgBeQvLl3UWinotAfQRs/ZEtPzKPqQAq/+rDL08dJzCYf1tReO+fBeCdHeei7otALQQAnGl7gZozE0DlXy3Y5UQEthIYzL+tBSTvC+Dz4iMCIlA9AZJftvPIzFM6B6j8qx67PIjAVgKD+be1YH5+/iYkfyU+IiAC1RMA8JvV1dUbmScTQOVf9czlQQT6BAbzr182B+CCJEl23VagNyIgAqUTILmbc+68vmETQHuv/OsT0asIVEdgOP+2eSJ5hp2RtK1Ab0RABEonAOAAAKf3DfcFUPnXJ6JXEaiOwHD+bfMEYIHkG7YV6I0IiEDpBAC8meR833BfAJV/fSJ6FYHqCAzn3zZPSZLck+QV2wr0RgREoHQCAL7e6/X27BvuC6Dyr09EryJQHYHh/FvjybZnsm1i1hTqgwiIQCkEANwawI8GjfUF0MqUf4Nk9F4EyiUwKv/WeNA8xBoc+iACpRIYNf8wJICahy+VuIyJwHYCo/Jv+9Xrn0TTPOAaIvogAuURGDX/MCiAmgcsj7UsicAwgVH5t6aO5iHW4NAHESiVwKj5h0EBVP6VilvGRGANgVH5t6aCfdA8xDokKhCBmQmMm38YFEBzovybGbUMiMA6AuPyb11FzQOuQ6ICEZiZwLj5hxECqHnAmWnLgAisJTAu/9bW0jzgOh4qEIEyCIybfxgWQM0DlkFbNkRgLYFx+be21tzc3MLCwl1st+x1F1QgAiJQmACA95K847CBYQFU/g0T0mcRmJ3AuPwbaZnkZ51z9x95UYUiIAK5CADYF8DFoxoNC6DVUf6NIqUyEShGYFL+jbQIwJE8YeRFFYqACOQiYFsM2q3NUY1GCaDybxQplYlAMQKT8m+kRdsNxp5GG3lRhSIgArkIkLxuy5YtO45qNEoAlX+jSKlMBIoRmJR/Yy0COMd7v//YCrogAiIwlYBz7okkzxpXcZQAWl3l3zhiKheB7ASm5d9YSySfA+DtYyvoggiIwFQCdvSRPYI9ruI4AVT+jSOmchHITmBa/k20BOCPEyvoogiIwCQCO5D8w6QK4wTQ2ij/JpHTNRGYSmBq/k20AOA0kgdOrKSLIiACIwmQPATAySMvpoVTBFD5NwmeronABAJZ8m9C87k559zjSX54YiVdFAERGEkAwEe8948ZeTEtnCSAyr9J5HRNBCYTyJJ/ky1cfxvmWpI7Ta2oCiIgAtsILC8v7wLgqm0FY95MEkBrAkD5N4adikVgHIGs+Teu/bZyAC9NkuTQbQV6IwIiMJUAgBeQPHpaxQwCqPybBlHXRWCIQNb8G2q2/mOSJLcn+d31V1QiAiIwjgDJHy4sLNxm3PV++TQBVP71SelVBLITyJp/mSzqYZhMmFRJBLYSyDP5Pk0AzaDyT18sEchOIE/+ZbLqvd8LwOWZKquSCHScAICvAbhbFgxZBFD5l4Wk6ojA9QTy5F9mZgA+SPJJmRuoogh0kID3/qkk35e161kE0Gwp/7ISVb0uE8ibf5lZkXwIgAszN1BFEeggAZKXAnhg1q5nFUDlX1aiqtdlAnnzLxcrAJ/w3j88VyNVFoGOEHDOPYrk+Xm6m1UAzabyLw9Z1e0agSL5l4sRgMcBODtXI1UWgY4QIHmec26/PN3NKYDKvzxwVbdTBIrkX25AJL/Q6/Xuk7uhGohAiwnYAdJ2kG3eLuYRQLOt/MtLWPW7QKBo/uVmA2AjyXflbqgGItBiAiTf45x7et4u5hVA5V9ewqrfBQJF868QGwBnOud2L9RYjUSgZQSWlpbuBODdRbqVVwDNh/KvCGm1aSuBWfKvEBPb4Nc2Gi3UWI1EoGUEAFxA8pFFulVEAJV/RUirTVsJzJJ/hZnYX6EkNxQ2oIYi0AIC3vtnAXhn0a4UEUDzpfwrSlzt2kRg1vwrzMJ7f0sAPy1sQA1FoAUESP4sSZKbF+1KUQFU/hUlrnZtIjBr/s3Ewjl3JMnjZjKixiLQUAIAXk1yZZbwiwqg+VT+zUJebZtOoIz8m5kBySv1QMzMGGWgYQS893cG8M1Zw55FAM238m/WEVD7JhIoK/9m7rv3fn8A58xsSAZEoEEEAHyU5KNnDXlWAVT+zToCat9EAmXlXyl9r3UNRikRy4gIFCdQ5lq8WQXQeqH8Kz6Watk8AmXmXym9X1xc3Jnk1aUYkxERiJwAyeu2bNmyYxlhliGAyr8yRkI2mkKgzPwrrc/Ouc0kjynNoAyJQIQEALyMZK+s0MoQQItF+VfWiMhOzATKzr9S+0rysiRJ9inVqIyJQCQE7JgjO26lzHDKEkCLSflX5sjIVmwEqsi/Uvto66FsXUapRmVMBCIhQPJX8/PzNykznDIFUPlX5sjIVmwEqsi/0vsI4HSblC/dsAyKQEACAD7gvX9y2SGUKYAWm23Irfwre5RkLzSBqvKv9H71er09AVwLYKF04zIoAgEIAHAkT6jCddkCaDGSfIPyr4rRks0QBKrMv0r6Y38pk/zF0tLS3StxIKMiUBMB59zeJL9clbsqBNBiJflV5V9Voya7dRGoOv8q64c9rQPgl5U5kGERqIEAgKuWl5d3qcpVVQK4sLBwG5I/rCpu2RWBOghUnX+V9oHkx0heVKkTGReBigjYKQ+223xF5rearUoAzTiAg0ieWmX8si0CVRGoI/+qin2bXZI/Jvl32wr0RgQaQIDkCwH8a9WhVimAFjuAt5A8tOp+yL4IlEmgrvwrM+axtkj+NkmSe46toAsiEBGBhYWFOwA4u46QqhZA64MdXk1ytzr6Ix8iMCuBOvNv1lgztU/PLvtjpsqqJAJhCexA8g91hVCHAFpfACj/6hpU+ZmFQK35N0ugudoC+Bv7JZirkSqLQM0E6p50r0sA9VBMzV8kuStEgOTve73egws1jr2R7RVKUqfIxz5QHY0PwOXe+73q7H5dAmh96vV69yH5hTr7J18ikJUAgJ+TTLLWb2Q9ku8C8PVGBq+gW0sg1PlidQqgDZ7OD2ztV7jRHQPwbZL/1uhOZA3eNu11zl2Qtb7qiUCVBACcRvLAKn2Ms123AFocJA8BcPK4mFQuAnUSAHARyU/W6TO4L5I/AfDvwQNRAJ0mAOB1JBkKQggBtL6SXAHw6lD9ll8RMAL2xyeA73SShj2ZBsB3svPqdHACAI4geXzIQEIJoPWZ5GuVfyFHv9u+Abyk0w9GOufuSvIaksd2+6ug3tdNAMArYtigIaQAGnMAr1L+1f3tk780/2y/6Nt2mka6POI/yzxlu9NA1fmpBNJfflHsThRaAA2W3QpV/k392qhCSQQs/wB8i+SjSzLZbDMAlgF8RnMSzR7HJkSfzvkFve05yCkGAbR4ALxG+Tc4MnpfBYE0/y4juViF/cbatAdi0iUSejqtsaMYd+Dp056VPPCSJMmuJB/mnDvMOXekzS2SfCPJU0i+j+R5AC4heQXJK9Nb/781AUzfW9kVAC62umkba2s2jgewJbX90KpOp0gfjFH+xf01bmx0af6dYedVNrYTVQYO4FMkXw7gnCr9yHb3CKTr/GZa6rCysnLTJEn2AXBAuqnDqXbnguTP0qea7ft7Esmj7TaPc+5wAAd775/qnNvPe/8g2xPXObf7pk2bbjE/P39DE0B7b2V2DcC+ad2nWtvUxhHe+xentj9tu9WQvI7kpQDebg8T2KkVJO87Pz9/k1lGN10iofybBaLariNg+ZfO+52/7qIKthOw5AawkeQXt5fqnQgUJ2A7vBSZb7BdYexWDYAzSX7czre0NawATk/PuzzIe/+AJEluXjS6ordAt2zZsiOAB5J8TvpH4zsBfJ7krwBcQPIMOxW+yCb0tlhe+Vd0RNVumIDln/2bDuAHw9f0eYiA/TVst4QA3BvAj4Yu66MI5CGwg/1BlXV7s0HBA/DTNHFPJLnBbnHmcZy1blEBnGTfYgXwDLvVlN5yvTqvICr/JhHWtYwEtuWfbXO2efPmm2Vs1+1qSZI82A7SBXBrWyt4+OGH367bRNT7vATsSBU71WHSfNni4uKe/V94w4JnJ5jk9VmkfhUCOBzH4uLizuMEcWFh4S7D9fuflX99EnrNS2Aw/9Jb9Q/Ma6PT9b33zyP5VoNg55nZAwCdBqLOZyaQHqY58jw/E0Tb+QXA59JfRVt/4dUleMOdqEMAh30OCmJ6e/ezAJyVD9e1z8q/UVRUNo7AYP6RfBuA546rq/IJBAD8PcnNVsUeALCniCZU1yURsH+sbS5s+NOFyj4AACAASURBVCR3O2PsEJLnpnPMtv3Z/WLAFUIAh/vtnLs/yRNIXm0PoNm84nAd5d8wEX0eRWAw/+zJZdtoYVQ9lWUkYI+D21N0Vt02LLZ5QZL3yNhc1TpCwDm3dzrf96x+l51zTyT5DrsVaps/A3hs/1osrzEI4CCL9LQIe7LUtik8zTn3+P515V+fhF6HCQznH4CnkHz/cD19LkCA5FeXlpbubk3TeYmvaCFlAZAtbWK370h+2W5v2nIC59yx6TKBs5xzz46527EJ4CArEzySHwZwLYCXJklye+XfICG9NwKD+Wefe73enjryruTvhv0VPzc3t0PfLIATAby3/1mv3SQA4AN2+857f6/0196VNudgywSaQCRmAezzI7kTyUNJftd+FdrTssq/Pp1uv/bzb5CC3T0Y/Kz3JRDw3t8FwDcGTZF8WnqKcBTzOYOx6X21BNI1cL+yOWIAHwLwpdh/7Y0i0gQBHIw7vQ1q67o+mM7x2Cneyr9BSB14388/7/2TB7s7eLdusFzvSyBA8kmWeIOmbG1J+kTf6mC53reXgPf+ZXaLBcCF6e5BT2hqb5smgH3OaS4af9uZ5hsklX99OC1/tfyzpQ3Duw6RfI9z7ukt737Y7tmu9bZx73AU6Q7/drTShuFr+twOAukOQbbTyQ/sV5/tvdn0njVVAPvcvfcPB3A2ye+nO+Uo//pwWvaa5p9twdcb7hqAV5I8arhcnysgQPLfALxg2LTtImPrmmzdEsk7Dl/X52YS8N7f2bb5AvA9G1+b72tmT9ZH3XQB7Peo1+vdB4Bt+m1CaGsslX99OA1/TfPvo3ZYwai5dVs2Y3vSNrybzQqf5Cedc381Kmrv/WPsvCmtQRlFp1ll6cMWtgfnpba7RLOinx5tWwSw39P5+fndUwG0+dl/7JfrtZkE7IgsAN8ct5duuob0s83sXcOjth34J+3RmE7SX0vymQ3vaufCt9MNAPw6va32tLYCaJsA9sfJpiJsY26S/6P861Npzmt6uoidcrIyLmqbA7QxHndd5RUTsMezbY3SJDdpnXfbGWuLi4t7TKqra+EJrKys3MlOIgDw3104oLWtAtj/JqUHoJoQXqb861OJ99Xyz04TsR1dpp1yYlMS3nvt0xxyOO38NDtEdFoMdsaa7f1o/9uZbtPq63q9BNJbKWfZHBLJS2zRdb0RhPHWdgE0qrY5QXpuos0PfkD5F+a7Nslrmn/vAWA/Fh45qa5dsx8U9m/qtHq6XgMBW/hsm65mcZXuin+Z7QvpvX9EljaqUx0B59yj0tPSv2cHy9oWStV5i89yFwSwT90ekU/X7dofOcq/PpiAr/38I/nZrEsYSL4ewFLAsOV6mADJ45xzRw6Xj/ts+0KS/Jj9ehxezDmujcrLI2D7u9qDLSQ/YZPsdqp5edabY6lLAtgfFefcMSRt7eAnlX99KvW+DuTf+Xl+yZHcBOCf641W3jIRsK3RbHeYTJXTSukt1A8A+AqAg/O0Vd38BOxUBgBfs03O7Q+W/uHH+S21o0UXBdBGzm6D2i/+JEnsxADlX01f58H8s91c8ri1W6M2P5injerWTMCErMhpEdaG5Ck2B5UkyfPHnY1Wc3da4c42qbZ1myR/mJ7KcDcAb7L5hlZ0cIZOdFUA+8hs95D05HrlXx9Kya+j8i+vi4WFhdtY/uZtp/oBCAD439XV1T8p4nppaem2JO0Wzdaz0fSrsAjFrW22nsFnmxLYMUUkj7YksqfGSP4HgBcVttyihl0XQBtKAAu2h6R9P5R/pX25R+ZfUevpr/WbF22vdjUSSJLkL0n+56wu7Ww0+1XYPxuNZGP3nJyVRdb2dgYfgNP7Z/DZpgT9tuntl+855+7aL+v6qwTw+m+AHXeW3iE4qP+dUP71SWR/nZR/2a2srQngEu/9g9aW6lPUBNLDUM8qK8h0F3w7dcAW1r9eX4jtZG0eNb2NZfsEngXggO1Xr3+X3vo8ebi8658lgGu/ASRPBfCWtaXbDsNW/g2Duf4X9NT8G9EsUxHJt3rvn5epsirFRQCAJ/naMqNKF9Yv2V9FNn9hc1m2a8LKysqtyvQTs630UNQDALzZHjyyJ/nsNtaofQJXV1dvQPJ8+/UXc59CxSYBXE/ezh60W+frr2wVQtv8QvkHZMq/UQyzlqVHjf191vqqFyEBAP9K8oVVhJbumvAi2zUBwI/t6cY2CuKQ4NkxRD9Kb3POT9r02Ob7APzO2lfBvw02JYCjR5Hkbjb1YPOCo2vMzSn/ODH/xnHLUm5Lw+zp3Cx1VSdyAgA+Yce2VB0mAHu6caQgWkJX7b8s++k/Pv2/MNcIXq/X2zOLHzsk1bZKylK3y3UkgJNH3+YF7aSJybWuv6r8y0Jpeh2bo7cH1abXVI3GELBfaHXfphxKSNtfzzZ3/pJtx2bnZ9kONkmSPNh7f8u6QdoyD5IPsfv7tomAHTNE8ssAfpPuzGIPssxnFbzB+NOJ+M8Nlun9aAISwNFcBktJfsEeiBksy/K+q/mXhc2kOvYA29zc3A6T6uhawwjY/BTJ60KGnSTJje0su3Q7tqNs+zaSFwH4abog3ObSTnbOHZsuEl9MBWqD7VyTiuVey8vLe5hozs/P39D+t/dp2V5WJ93lZkPadtFsAXhp+iDKJemDPLbM40Kb5E59bXDO7b26unqjWRg55w6zB2FmsdGlthLAbKMN4JxZ55G7kH/ZaI6vVXQd9XiLuhINAXty0x5eiSaggUDSw3ztaa5DnHMr6a+yE02g0l9n56ZieTnJb6ei+VuSv03fW5ldu8j2WUzbWFuzYb/wls22MbAHeQZcl/Y2FdKTSjPYAUMSwOyDbH/ATTqeJ7ul9TXbkH/re5WvJP03Y0O+VqrdKAImApZIjQq6AcGSPMGEtgGhRhWiBDDfcNgRWWU/2Z0vgnbWJvl3AF7czt6pV2sI2PwbyaPWFOpDYQL2DxIAV9hAhxtKAPMPvi1vAvCq/C3VYhQBAAfZ+stR11TWUgK2hi/r8R8tRVBKt1Lx6+RJDmUAlAAWo2jz5F04MLkYneyt0qe19cBadmTtqUnyiiRJ7tmeHtXbE7vtqV9+szGXABbnR7IH4DXFLXS7pff+zwH8d7cpdLz3JH+/cePGP+04htzdTx940ZxfbnJrG0gA1/LI+ymdE1zJ2071t+6q890kSW4vFh0m4L2/sx3I2mEEubueLnXQ0565ya1vIAFczyRvSfp0qLbaywEufVL8sTmaqGpbCdgpDwA+1Nb+ldmvsjcZLzO2JtqSAJYzarZOsMhi+XK8N8sKgH8imTQrakVbKQGSBPC6Sp003LgmzMsfQAlgeUxJfhHAvcuz2D5L6VaNb2pfz9SjmQmQ/BcAfzuzoRYaSDe21t6eJY+tBLBcoOlG7dp8fQRW7/0jSH5sxCUVicD1BEh+HMBfi8d2AnakkZ3qsL1E78oiIAEsi+R2O3aKxPZPemcEbB9k2w9ZNERgKgH9FbkWEYDzdaTRWiZlfZIAlkVyux27W0Fy5HmC22t1653tgzzqvM5uUVBvMxHYvHnzzQD8PFPlllfSE3bVDrAEsBq+elJ5O9f0wOp9t5fonQhMIQDggSQvnVKt1Ze1b2r1wysBrI4xgNNIHlidh/gtA3gLyUPjj1QRRkcAwMEkT4kusBoC0kMvNUCe27oY+f/q8dRNL12ezgBwBMnjuzny6nUpBLq6S7qdCG0nQ5cCUUbGEtAvwLFoSrlA8h52xl0pxhpkBMDfkPx/DQpZocZKoGvnZAF4k60XinU82hSXBLD60SS5aOdiVu8pDg/e+7sA+EYc0SiKVhCww2a993u1ojMTOkHymQDePaGKLpVIQAJYIswJpgC8l+TTJlRpzSUA/7u6uvonremQOhIHAVsLZ2vi4oim/CjsVGyS15RvWRbHEZAAjiNTfrk92W1PeJdvOR6LOuEmnrFoXSRLS0t3IvlfretY2iFtJVX/yEoA62Pe9q38SJ4B4Bn1EZWnzhFwzj2e5Ifb1nGSRwHQwbY1D6wEsF7gJFft6ch6vVbvDcArSB5dvSd56DwB7z1I/mNbQCRJsivJn7SlP03qhwSw/tGy2/x2u79+z9V4tLWOtuaxGuuyKgIjCAB4M8n5EZcaV0Ty/QCe0rjAWxCwBLD+QSS5wZ7srt9z+R6TJNmH5GXlW5ZFEZhCwHZWtx3Wp1SL+nJbb+lGDX0gOAngAIwa3wL4iPf+MTW6LN3VoYce+mck/6d0wzIoAlkJkPzhwsLCbbLWj60eye8mSXL72OLqSjwSwDAjTfKOAL4Vxns5XgF8p9fr3aEca7IiAgUILCws/AXJXxRoGryJTZrb5HnwQDocgAQw3OADeBWALeEiKO4ZwDne+/2LW1BLESiJgPf+AQA+U5K5WswsLy/vAuCqWpzJyVgCEsCxaGq5AOBakjvV4qwkJyRPAOBKMiczIjA7AZLPAfD22S3VY6FLO2PUQ7SYFwlgMW5ltWrazkf24J09gFdW/2VHBEoj0JS1OAAeB+Ds0jouQ4UJSAALoyutIcnznHP7lWawIkMA/prkxysyL7MiMDuBJuzGYL/+FhYWNHk++3DPbEECODPCmQ0sLy/vYXk7s6EKDWitboVwZbpcAiS/7Jzbu1yr5VgDcACA08uxJiuzEpAAzkqwnPax/+HaxLnKckZGVhpJgORv5+fnbxhb8AC+5L2/V2xxdTUeCWAcIx/zgnIAF5J8SBykFIUIZCAQ4zojkk8A8KEM4atKTQQkgDWBzuCG5LkAHpuham1VSJ7knDusNodyJAJlEYjtYRMAnyL5sLL6JzuzE5AAzs6wLAu2q5Pt7lSWvVntAFgm+Q+z2lF7EQhGwNbr2LqdYAGkjk34TABDxyH/awlIANfyCP0JwMUA9g0dB8knAfhg6DjkXwRmJkDyjc65w2c2NIMBu/Vpt0BnMKGmFRCQAFYAdQaT3vsnA/jADCZmbuq9vzOAb85sSAZEIBYCAC4g+cgQ8dhDL/bwSwjf8jmZgARwMp8QVwF8heQ9Qvg2nyR/v3Hjxj8N5V9+RaASAgB+QHK3SoxPMEryHc65Z0+ookuBCEgAA4Gf4BbAwSRPmVClsksALvfe71WZAxkWgVAEVlZWbgrgl3X6d87tTvLKOn3KV3YCEsDsrOqsSfL7S0tLt63TJ4B329ZsdfqULxGolYBz7v4kP1uXU+fcsQCeW5c/+clHQAKYj1ddtUk+n+QxNfp7OYCX1OVPfkQgGAEAB5E8tY4ASF63ZcuWHevwJR/5CUgA8zOro8Xi4uLOJK+uw5dNT9g0RR2+5EMEoiBAsvK/+JxzTyR5VhQdVhAjCUgAR2KJorCOM/dI3hfA56PosIIQgToJVH3PXw+/1DmaxXxJAItxq6NV1Q/DJElyYwC/rqMv8iECURKocG/OHUj+IcpOK6htBCSA21BE+QbAH6sKzB5Os4fUqrIvuyLQCAIAfrO6unqjMoMleQiAk8u0KVvlE5AAls+0TIsATiN5YJk2zZadx2lbJZZtV/ZEoHEE0vPIvl1m4DFu7Ftm/9piSwIY90hWsYE8yX/03iPunis6EaiRgPd+f5t0L8Pl8vLyLgCuKsOWbFRLQAJYLd8yrJd5Fh+AvyX5L2XEJRsi0CoCJBMA/zRrp0gSwOtmtaP21ROQAFbPeFYPJF8PYGlWO977hwP4xKx21F4EWksAwD+T3DRLBwF8juT9ZrGhtvUQkADWw3kWL977BwG4ZBYbuiszCz217RQBkuc75x5VpNO9Xm9PkmcUaas29ROQANbPvIhHAO9ZWlq6U5G21obkNZs2bbpF0fZqJwKdIlB0L0KSiwBO7BSsBndWAtiMwQPwJgAvKhItyU875x5apK3aiEAnCczPz9+E5K/ydh7AmSQ35G2n+mEISADDcM/r1Xv/LADvzNsOwL/bvqJ526m+CHSegM3j2XxeHhAAfuq9v2WeNqobjoAEMBz7PJ5XVlZuBeDHedqQ7AF4TZ42qisCIjBAwBbh2mLcgaKxb+0cMTtPbGwFXYiOgAQwuiEZGxCArwG429gKAxe0D+8ADL0VgVkIAHhZlqNZNP83C+UwbSWAYbgX8Zp1HtAeliH5X0V8qI0IiMAIAiTfBWDjiEvbijT/tw1FY95IABszVHNZ5wEB/G51dfUGzemZIhWBBhAg+UUA9x4Xqub/xpGJt1wCGO/YDEeWZR6wws3th8PRZxHoHgE7PsWOURnuueb/hok047MEsBnj1I9y0jxglrs0fTt6FQERKECg1+vdAcB3hptq/m+YSDM+SwCbMU79KMfNA5JcBfDSfj29ioAIVEQAwGPttIdB85r/G6TRnPcSwOaMlUU6ah4QwAEATm9WTxStCDSYgG3Oa5v09rtA8uNJkuza/6zXZhCQADZjnPpRktwNwAX9zzYnb3Pz/c96FQERqIkAyTcAWFhZWbkpgF/W5FZuSiQgASwRZk2m+vPwdoi1HWZdk1u5EQERGCYA4KPOuXmSlw1f0+f4CUgA4x+j4Qj7T3oC+BbJOw5f12cREIEaCdjyB5Lvr9GlXJVEQAJYEsgazdhpK/YHp3Pu8TW6lSsREIFRBEi+3BbfjrqmsrgJSADjHp9R0ZG8lORZo66pTAREoGYCJE8F8GLdBq0ZfAnuJIAlQKzRBMkXAvgYybfV6FauREAExhEA8Bnv/QOcc88m+Y5x9VQeHwEJYHxjMi4i59xfkfxkkiQPJnnRuHoqFwERqJEAyZ8lSXJzc6kFuTWCL8GVBLAEiDWYWFxc3Jnk1ebKjhuzefca3MqFCIjAJAK29o/kTwbr2MGdtmB3sEzv4yQgAYxzXIajGt5nl+Q1mzZtusVwPX0WARGokQDJhwH41LBLkl/o9Xr3GS7X57gISADjGo9R0Vh+WZ4NXgNwMYB9B8v0XgREoGYCzrnDSJ40yi3J/zn00EP/bNQ1lcVBQAIYxziMi4LkvwF4wfB1ACeTPGS4XJ9FQARqJOCcO9I5d/Qol0mS3J7kd0ddU1kcBCSAcYzDqCgAeJKvHXWN5LEkV0ZdU5kIiEBNBEgeD+CIce68948B8JFx11UeloAEMCz/cd5JPgHAh8Zdtz88SR437rrKRUAEaiBA8o3OucMnudJRSZPohL0mAQzLf5R3297Mtjkbda1fppzqk9CrCAQkQPIUAAdPCwHAiZa00+rper0EJID18s7ijeRv5+fnbziprvf+eSTfOqmOromACFRMgOT7vPdPzeKG5HnOuf2y1FWdeghIAOvhnNWLHW1kRxxNq09yg53BOa2erouACFRIIK+o2UMx9nBMhSHJdA4CEsAcsCqummf97KhDqSsOT+ZFQASGCQC4xHv/oOHycZ9tWYQtjxh3XeX1EpAA1st7nDcAL7VdlMZdHy7XdmjDRPRZBAIQIHlFkiT3zOOa5H0BfD5PG9WthoAEsBqueazarkn26y9nm70AXJ6njeqKgAiUTIDklc653fOaBXAAgNPztlP9cglIAMvlmdea9/5edsBt3nbLy8t7kPx23naqLwIiUCKBWfYkzHvbp8SwZSolIAEM91WwJz3tic8iEWhD7CLU1EYESiaQ5ZHtSS7t+CQ7RmlSHV2rjoAEsDq20yyT/K+lpaU7Tas36vos4jnKnspEQAQKEJhVAM2lzQfavGAB92oyIwEJ4IwACza3XV5st5eCzeckgEXJqZ0IlEhgllugg2EA+G/v/Z8Plul99QQkgNUzHvYA4DUke8PleT7rFmgeWqorAhURKPoQzHA43vvbAfjecLk+V0tAAlgt32HrdrKDnfAwXJ73sx6CyUtM9UWgAgJFlkGMC8N2ibGF9eOuq7x8AhLA8pmOs+iceyjJT4+7nqfce69lEHmAqa4IVEGg7IM5ASyQfEMVscrmegISwPVMqigp+5alFsJXMUqyKQI5CeTdCi2LeZKvB7CUpa7qzEZAAjgbv6ytAVy1vLy8S9b60+ppK7RphHRdBGogkGcz7Dzh2BmCdpZgnjaqm5+ABDA/s7wtSH7SOfdXedtNqq/NsCfR0TURqIlA1uOQioQD4Du9Xu8ORdqqTTYCEsBsnIrWAvCvJF9YtP24djoOaRwZlYtAjQSyHIhbNJwkSW4M4NdF26vddAISwOmMitYgSQCvK9p+UjsdiDuJjq6JQE0ESB4P4Iiq3PV6vfuQ/EJV9rtuVwJYzTfAOfd4kh+uxvrcnHPuSJLHVWVfdkVABDIQALAFwIszVC1cpchu+YWddayhBLD8Aa9jjZ7towtgufzoZVEERCAzAefcYSRPytygYEWSxwB4WcHmajaGgARwDJgZigH8ZnV19UYzmJjaFMDJJA+ZWlEVREAEqiNQ5uLeaVECOI3kgdPq6Xp2AhLA7Kyy1LTb9XbbPkvdWerkPYh6Fl9qKwIiMIaArW2yNU5jLpdeTPKyJEn2Kd1wRw1KAMsbeDvf0s65LM/ieEsAriW50/gauiICIlALAZLXbdmyZcdanM3NzZH81fz8/E3q8tdmPxLAcka3zlv0i4uLO5O8upzIZUUERGAmAiQvBfDAmYzkaLy0tHRbkt/P0URVxxCQAI4Bk6MYwEaS78rRZKaqJB8C4MKZjKixCIhAOQQAvJ3kc8qxls0KyUcD+Gi22qo1joAEcByZbOXOub1Jfjlb7XJqaRF8ORxlRQRKIQDgJSRfXoqxHEZIbgLwzzmaqOoQAQngEJAcH1dXV28A4Hc5mpRS1db/2TrAUozJiAiIwGwEQq7TA/BPJJPZetDd1hLA4mMP4Jve+zsXt1CsJYAzbS/QYq3VSgREoFQCJO8L4POlGs1hjOS5tjt+jiaqmhKQABb7KpA8yzn3xGKtZ2tlt1zt1utsVtRaBESgFAL2RKY9mVmKsYJGyjqZvqD7xjaTAOYfOpL/EHIXljoW2uenohYi0GECAC5IkmTXUAhs5w37hyGU/6b6lQDmGzmSzwfw7/lalVeb5G7OufPKsyhLIiACMxMgeQaAZ8xsaAYDAO5N8oszmOhcUwlg9iGPYfmBLbS3BffZo1ZNERCBygkAWCD5hsodTXFQ95qsKeFEf1kCmG2INm3adAuS12SrXV0tAG8mOV+dB1kWARHITSBJknuSvCJ3wwoahFqWUUFXKjcpAcyGmORPQt7i70cJ4Ou9Xm/P/me9ioAIRELAtmeybZpiCIfkqQAOiiGWmGOQAE4fHQCf8N4/fHrNamsAuDWAH1XrRdZFQAQKEYhhHnAwcACfI3m/wTK9X0tAAriWx/CnmG45av5veHT0WQQiIhDLPOAgEgC/XFlZuelgmd5vJyAB3M5i+J33HiT/cbg81OeYxDgUA/kVgWgJxDQP2Idkj40D+EH/s17XEpAAruXR/+S93x/AOf3PMbxq/i+GUVAMIjCBQEzzgP0wnXOPInl+/7NetxOQAG5n0X/nnNvdNlbof47hVfN/MYyCYhCBKQRimwfsh+ucO5zkG/uf9Xo9AQng+m8Cyf859NBD/2z9lXAlmv8Lx16eRSAzgRjnAfvBkzwBgOt/1uvWw4X/Txy2E7A9bW1v2+0lcbzT/F8c46AoRGAigYWFhbvYbvUTKwW8aPM6Nr8TMISoXOsX4PbhIPkO59yzt5fE8w7Ae0neMZ6IFIkIiMBIAiQ/65y7/8iLERSS/Pby8vIeEYQSPAQJ4PVDEPPmCQD2BXBx8C+LAhABEZhOwG4z2u3G6TXD1Jifn78hyd+G8R6XVwng1tvAzwTw7rhGZns0tsWgTS1sL9E7ERCBaAnYbjD2NGi0Ac7Nzdl5anauWswx1hFb1wXQe78XgMvrYF3UB8nrtmzZsmPR9monAiJQM4EmzLWRjPov/zqGrMsCuHHjxj8l+fs6OBf1YYfu2uG7RdurnQiIQAACJJ8D4O0BXOdySfJoAK/I1ahFlbssgCT/M0mSv4x5OO3oI1sCEXOMik0ERGAEAQB/HFEcXZEJtQl2dIHVEFBXBRDAB0k+qQbEs7jYgeQfZjGgtiIgAoEIADiN5IGB3OdyG/uTq7k6k6NyFwUQwKtJruTAFKQqyUMAnBzEuZyKgAjMRsA593iSH57NSn2tSf5iYWHhL+rzGN5T1wTQOXcYyZPCk58eAYCPeO8fM72maoiACERJAMC1JHeKMrihoBYWFm5D8odDxa3+2CUBTJLkwSQvasKALi8v7wLgqibEqhhFQATGEADw0iRJDh1zObpiko8EcEF0gVUUUFcE0P4Isz/GKsJYulkAL7AHtEo3LIMiIAL1EUiS5PYkv1ufx9k9AXgRgDfNbil+C10RQAA/XllZuVX8I3J9hHYnwu5INCVexSkCIjCGQJMehul3wQ5CtQNR+5/b+toFAST5cQB/3ZQx1MMvTRkpxSkCGQg0YbeNUd0AcDaAx4261paytgug/ZK3X/RNGi8AXwNwtybFrFhFQAQmEGjIuqt1PQDwrTbvwt9mAYx9T9p1X7a5uTnv/VNJvm/UNZWJgAg0lADJhwC4sGnhr66u3gDA75oWd9Z42yqAAB5L8tysHGKpR/JSAA+MJR7FIQIiUBIBAJ/w3j+8JHO1mWnqLdwsgNoogL1e7w4AvpOl/zHVcc49iuT5McWkWERABEoiYPNpNq9WkrlazQB4BskzanVag7M2CiCA//be/3kN+Ep1QfI859x+pRqVMREQgXgIkPxCr9e7TzwRZY8EwItJ/l32FvHXbJsAkrwsSZJ94ie/NkI7QNq241tbqk8iIAKtIgBgI8l3NbVTJE8BcHBT4x+Ou00CSPJUAAcN97EJn0m+xzn39CbEqhhFQARmIADgTOfc7jOYCNoUwGe89w8IGkRJztsigE0+1mppaelOMZ9IX9JXTWZEQASMgG3waxv9NpkGgJ9v3rz5Zk3ug8XeBgEkucH+qGrqWNjWe7YFX1PjV9wiIAI5Cdg/WPYPV85m0VQHcGsAP4omoIKBNF0AkyS5J8krCnY/eDPv/bMAvDN4IApABESgPgLe+1sCbLqiyAAAD8RJREFU+Gl9Hsv35L1/BMmPlW+5PosNF8DGHxhL8mdJkty8vhGXJxEQgSgIOOeOJHlcFMEUDILkPIA3F2wevFmTBRDAN7z3dwkOsWAATTmYt2D31EwERGAaAZJXNvmBGOsfgNeR5LS+xni9qQII4APe+yfHyDRLTN77OwP4Zpa6qiMCItBSAt77/QGc0/TuAfgQySc0rR9NFECSxwM4ommsB+MF8FGSjx4s03sREIEOEmjLGiiS/2WPtDdpCJsmgCQPBfCWJjEejrXpa2GH+6PPIiACMxBYXFzcmeTVM5iIounGjRv/lOTvowgmYxBNEkAA+wK4OGPXoq1G8rotW7bsGG2ACkwERKBeAs65zSSPqddr+d6a9lh+UwTQBMOEo/wRq9cigJeR7NXrVd5EQASiJ9DUfRyHwTZpYXZTBNDWXNray2HWTfpsxxzZcUdNilmxioAI1ETA1kPZuqia3FXqhuRRAF5ZqZMSjDdBAG2tpa25LKG7QU2Q/NX8/PxNggYh5yIgAvESsA2B7aGYeCPMHhmAk0kekr1F/TVjF0CSb3TOHV4/mXI9Nn3ZRrk0ZE0ERGAsAZJvALAwtkKDLsR+wnfMAkgyAfBPDRrukaECcCRPGHlRhSIgAiIwTIDkV5eWlu4+XN7EzzFvdxWrALZhw3T7rjrn9ib55SZ+bxWzCIhAIAILCwu3IfnDQO5LdbuysnIrAD8u1WhJxmIUwCRJbk/yuyV1MagZAFctLy/vEjQIORcBEWgeATvc1A45bV7k6yMG8NckP77+StiSGAWwLQ+L2CkPdtpD2BGWdxEQgcYSsF0/bPePxnZgIHAAf0vyXwaKgr+NTQABfI7k/YKDmTEAki8E8K8zmlFzERCBrhOww3NJ7tYGDiRfC8DH0peYBBDA20k+JxY2ReNYWFi4A4Czi7ZXOxEQARFYQwDAH9cUNPgDybOcc0+MoQuxCCCAF5P8uxiYzBhD488onLH/ai4CIlA2gTY9FGNs7CgcOxKnbE557cUggC1b+6mHXvJ+CVVfBERgOoFer3cfkl+YXjP+Gqurq38C4H9DRxpaAEneA8BXQnMowz+Ay733e5VhSzZEQAREYB2BtpwfaB2L4R//0ALYllvbOt9vXaqqQAREoAoCtr2YbTNWhe26bYa+/RdSAEn+h3PurnUzL9sfgNNIHli2XdkTAREQgZEESK4AePXIiw0rdM4dSfK4EGGHEkCS7wfwlBB9LtMngNeRZJk2ZUsEREAEphKIbUnB1IAnVCD5NgDPnVClkkshBBDA35PcXEmHajQK4AiSx9foUq5EQAREYDsBAK8ieez2kua+A3CJ9/5BdfagbgE0kTexr7OPVfgC8IqWLNuoAo9sioAI1EXAboW25ZRtO/XcTj+vi12dAmjibiJfV9+q8pP+8mvDmsWqEMmuCIhAnQQAvKYNc4JJkuxK8id1satLADdv3nwzAD+vq19V+Unn/HTbsyrAsisCIlCMQPpgTOOfDnXO/RXJTxajkK9VXQJoJ3vYZgb5oourdvq0px54iWtYFI0IiECfQLpE4pz+56a+1rWZch0CSPJ859yjmjoWFne6zk9LHZo8iIpdBLpAwBbLk/xi0/tqt3WrntusWgAB/DPJTU0eC9vhheSjm9wHxS4CItAhAgDuDeBHTe8ygA+SfFJV/ahSAAEskXx9VbHXYHcHO9BW25vVQFouREAEyiUA4Na21dbhhx9+u3It12uN5H8mSfKXVXitSgCdc/uRPK+KmOuwaUcakfyDTnOvg7Z8iIAIVEbAzhN0zh1WmYPqDVd2xE4VAui9vx2A71WPpRoP6fyrzvOrBq+sioAI1E2A5En2FF/dfsvyt7S0dHeSXy3LXt9OFQII4JcrKys37fto0iuAd+ok9yaNmGIVARHIRMA2LLZ5QTuFIVODyCqRfBqA95YZVtkCSPKzzrn7lxljHbacc3un833PqsOffIiACIhA7QTSecGvkFys3XkJDgFsse3fSjC11USZAkjyFAAHlxVbXXYAOJJf1nxfXcTlRwREICgBACeW/Wuqrg6RfKv3/nll+CtLAEkeBeCVZcRUpw0AHyB5Qp0+5UsEREAEghNIbyn+nOT9ggeTMwAAFwPYN2ezddXLEMAqbs2uC7TkAgAPJPkr7/2TSzYtcyIgAiLQDALpHpWfI7najIi3RwngWpI7bS/J/25WAazq4Zz8Pcnewnv/MpKXzs/P3yR7K9UUAREQgZYSSHf4v4bkhqZ00eas7MGNWeKdVQBnbT9L7HnbAthop21UvbtO3rhUXwREQASCE9i0adMtAJxp6wZJ3jF4QBkCIPkwAJ/KUHVklVkEDMDXe73eniMNR1Tovb9zupfnu+o8aioiBApFBERABLIR8N4/BsC3ynzaMpvnYrUAvIDkvxVpXVQASb7Pe//UIj7rbGNHZAH4pvbyrJO6fImACDSeQLrkwObZnhl7Z0j+A4DlvHEWEUD7w8DY5PVVZ33v/bNI/syOyKrTr3yJgAiIQGsI2EMmAN5t+1ouLi7uEXPHSP4/AH+TJ8a8ApgeNxXtmYsrKyt3AnCB7eiSJMnN87BQXREQAREQgREE0s2dzyB5RpIk+4yoEkURgG947++SNZg8ApguHbg0q+0669nuMyTfk/6x8sg6fcuXCIiACHSCAIBnkLyM5Lne+0fE2Gk7ASNrXFkFcGFh4S9I/iKr3brq2UG79us83YLt6XX5lR8REAER6CwBAI8l+TFbkB7bYmoAdwPwtSyDk1UAAfyA5G5ZbNZRxx7AsbV86Wnz+9XhUz5EQAREQAQGCNhuLLadFoCvxLQPZioQ7xsIdeTbLAKYLiGI4kT0dA7ya/YUqt2SHdkpFYqACIiACNRHwE6YsM2gSX4/SZLnLy4u7lyf99GeSG4G8Pejr15fOk0ASb4BwMIkG1VfSxf821KPHwI42X7hVu1T9kVABERABHISWFpaui3JY0heDeCc0L8KAbyF5KHjujFJAE34TADHta243A4BPsQ2JbDdbkgevbCwcJuKfcq8CIiACIhAGQS89/unRwT90Q7jJfmEMuzmtQHgQpIPGdVunADawnG79TmqTZVlzrknAjid5B/s155tSlClP9kWAREQARGomEB6GO+H0g2sX++9f1DFLteYJ3mNbfW2pnBubm6UANrDLvbQy3Ddqj7bPKr90kz36TwLwAFV+ZJdERABERCBQATShfVLAC5J1629yXYtWVlZuVWVIdmcpN2WHfYxRgB/YcsehuuW9Tk9lPgAAG+2MxnTo50WtE9nWYRlRwREQAQiJ5DuWvIi27UEwI9t6QKAygTROfdQkp8exDIsgLa0oOynK4cE7+sAfpTe5pxvyqbjg8z0XgREQAREoGQC6fq9kYJY1ho8ks8H8O/90AcF0Obc7MGT/rWir+kt1P4vvDWC14TTI4r2W+1EQAREQARKIjAkiLa/5a8BfMm2YwPwSgDPTZLkwd77W+ZxaSck9DeJ7gugc+5IksdltZPeUn2I9/551s6OkSL5ZQC/sZ1Z+r/wJHhZiaqeCIiACIjAWAJJktzYe3+vdDu2o0i+jeRFAH5qD7mkc2knO+eOTQVtMRWoDbZzTSqWey0vL+9B8sPOuaebANpSjXRrt72sTrrLzYa07aLZAvDSdA3eJemDPLbMw54ufWvqa4Nzbu/V1dUbje2ALoiACIiACIhA2QTSw3ztacpDnHMr6a+yE02g0l9n56ZieTnJb5to2p6hqQD+b1pm1y4yMUzbWFuzYb/wls22Pb1qD/KUHb/siYAIiIAIiECtBPq3QGt1KmciIAIiIAIiEJqABDD0CMi/CIiACIhAEAISwCDY5VQEREAERCA0AQlg6BGQfxEQAREQgSAEJIBBsMupCIiACIhAaAISwNAjIP8iIAIiIAJBCEgAg2CXUxEQAREQgdAEJIChR0D+RUAEREAEghCQAAbBLqciIAIiIAKhCUgAQ4+A/IuACIiACAQhIAEMgl1ORUAEREAEQhOQAIYeAfkXAREQAREIQkACGAS7nIqACIiACIQmIAEMPQLyLwIiIAIiEISABDAIdjkVAREQAREITUACGHoE5F8EREAERCAIAQlgEOxyKgIiIAIiEJqABDD0CMi/CIiACIhAEAISwCDY5VQEREAERCA0AQlg6BGQfxEQAREQgSAEJIBBsMupCIiACIhAaAISwNAjIP8iIAIiIAJBCEgAg2CXUxEQAREQgdAEJIChR0D+RUAEREAEghCQAAbBLqciIAIiIAKhCUgAQ4+A/IuACIiACAQhIAEMgl1ORUAEREAEQhOQAIYeAfkXAREQAREIQkACGAS7nIqACIiACIQmIAEMPQLyLwIiIAIiEISABDAIdjkVAREQAREITUACGHoE5F8EREAERCAIAQlgEOxyKgIiIAIiEJqABDD0CMi/CIiACIhAEAISwCDY5VQEREAERCA0AQlg6BGQfxEQAREQgSAEJIBBsMupCIiACIhAaAISwNAjIP8iIAIiIAJBCEgAg2CXUxEQAREQgdAEJIChR0D+RUAEREAEghCQAAbBLqciIAIiIAKhCUgAQ4+A/IuACIiACAQhIAEMgl1ORUAEREAEQhOQAIYeAfkXAREQAREIQkACGAS7nIqACIiACIQmIAEMPQLyLwIiIAIiEISABDAIdjkVAREQAREITUACGHoE5F8EREAERCAIAQlgEOxyKgIiIAIiEJqABDD0CMi/CIiACIhAEAISwCDY5VQEREAERCA0AQlg6BGQfxEQAREQgSAEJIBBsMupCIiACIhAaAISwNAjIP8iIAIiIAJBCEgAg2CXUxEQAREQgdAEJIChR0D+RUAEREAEghCQAAbBLqciIAIiIAKhCUgAQ4+A/IuACIiACAQhIAEMgl1ORUAEREAEQhOQAIYeAfkXAREQAREIQkACGAS7nIqACIiACIQmIAEMPQLyLwIiIAIiEISABDAIdjkVAREQAREITUACGHoE5F8EREAERCAIAQlgEOxyKgIiIAIiEJqABDD0CMi/CIiACIhAEAISwCDY5VQEREAERCA0AQlg6BGQfxEQAREQgSAEJIBBsMupCIiACIhAaAISwNAjIP8iIAIiIAJBCEgAg2CXUxEQAREQgdAEJIChR0D+RUAEREAEghCQAAbBLqciIAIiIAKhCUgAQ4+A/IuACIiACAQhIAEMgl1ORUAEREAEQhOQAIYeAfkXAREQAREIQkACGAS7nIqACIiACIQmIAEMPQLyLwIiIAIiEISABDAIdjkVAREQAREITUACGHoE5F8EREAERCAIAQlgEOxyKgIiIAIiEJqABDD0CMi/CIiACIhAEAISwCDY5VQEREAERCA0AQlg6BGQfxEQAREQgSAESB4bxLGcioAIzP1/XxRlRFU66ScAAAAASUVORK5CYII=;" parent="39" vertex="1">
                    <mxGeometry y="21.4645468021738" width="208" height="233.07" as="geometry"/>
                </mxCell>
                <mxCell id="37" value="" style="rhombus;whiteSpace=wrap;html=1;fillColor=none;" vertex="1" parent="39">
                    <mxGeometry x="103.5" y="21.4645468021738" width="103.64" height="103.64" as="geometry"/>
                </mxCell>
                <mxCell id="38" value="" style="rhombus;whiteSpace=wrap;html=1;fillColor=none;rotation=45;" vertex="1" parent="39">
                    <mxGeometry x="103.5" y="21.4645468021738" width="103.64" height="103.64" as="geometry"/>
                </mxCell>
            </root>
        </mxGraphModel>
    </diagram>
</mxfile>